<svg width="64" height="64" viewBox="0 0 64 64" fill="none" xmlns="http://www.w3.org/2000/svg">
<path d="M31.9 62C48.4686 62 61.9 48.5685 61.9 32C61.9 15.4315 48.4686 2 31.9 2C15.3315 2 1.90002 15.4315 1.90002 32C1.90002 48.5685 15.3315 62 31.9 62Z" fill="#D80027"/>
<path d="M29.9 27.8C30.6 26 32.3 25.7 33.2 23.4C33.6 22.4 32.9 20.4 33.3 19.4C34.2 17.1 36.5 17.5 36.5 17.5C32.4 16 27.8 18.1 26.3 22.1C24.8 26.1 26.9 30.6 31 32C29.9 30.8 29.3 29.4 29.9 27.8Z" fill="white"/>
<path d="M30.3 22.2C30.7971 22.2 31.2 21.797 31.2 21.3C31.2 20.8029 30.7971 20.4 30.3 20.4C29.803 20.4 29.4 20.8029 29.4 21.3C29.4 21.797 29.803 22.2 30.3 22.2Z" fill="#D80027"/>
<path d="M26.5 31.8C25 30.6 25.2 28.9 23.2 27.4C22.3 26.7 20.2 26.8 19.3 26.1C17.3 24.6 18.5 22.5 18.5 22.5C15.8 25.9 16.4 30.8 19.9 33.4C23.3 36 28.3 35.4 31 32.1C29.4 32.7 27.9 32.8 26.5 31.8Z" fill="white"/>
<path d="M20.8 30.4C21.2971 30.4 21.7 29.9971 21.7 29.5C21.7 29.0029 21.2971 28.6 20.8 28.6C20.303 28.6 19.9 29.0029 19.9 29.5C19.9 29.9971 20.303 30.4 20.8 30.4Z" fill="#D80027"/>
<path d="M29.4 36.2C27.8 37.3 26.2 36.5 24.1 37.9C23.2 38.5 22.6 40.5 21.7 41.1C19.6 42.5 17.9 40.8 17.9 40.8C20.3 44.4 25.3 45.3 28.9 42.9C32.5 40.5 33.5 35.7 31.1 32.1C31.2 33.8 30.8 35.2 29.4 36.2" fill="white"/>
<path d="M25 40.3C25.3 39.9 25.9 39.8 26.3 40.1C26.7 40.4 26.8 41 26.5 41.4C26.2 41.8 25.6 41.9 25.2 41.6C24.8 41.3 24.7 40.7 25 40.3Z" fill="#D80027"/>
<path d="M34.5 34.9C35 36.7 33.8 38 34.5 40.4C34.8 41.4 36.5 42.6 36.8 43.7C37.5 46.1 35.3 47.1 35.3 47.1C39.5 45.9 41.9 41.6 40.7 37.5C39.5 33.4 35.1 31 30.9 32.2C32.7 32.5 34 33.2 34.5 34.9" fill="white"/>
<path d="M37.6 40.2C37.3 39.8 37.4 39.2 37.8 38.9C38.2 38.6 38.8 38.7 39.1 39.1C39.4 39.5 39.3 40.1 38.9 40.4C38.4 40.8 37.9 40.7 37.6 40.2Z" fill="#D80027"/>
<path d="M34.8 29.7C36.8 29.8 37.6 31.3 40.1 31.4C41.2 31.4 42.9 30.2 44 30.2C46.5 30.3 46.8 32.6 46.8 32.6C47 28.3 43.5 24.7 39.2 24.6C34.8 24.5 31.2 27.8 31 32.1C31.9 30.6 33.1 29.6 34.8 29.7" fill="white"/>
<path d="M41.4 28.5C40.9 28.7 40.4 28.4 40.2 27.9C40 27.4 40.3 26.9 40.8 26.7C41.3 26.5 41.8 26.8 42 27.3C42.2 27.8 41.9 28.4 41.4 28.5Z" fill="#D80027"/>
</svg>
