<svg width="64" height="64" viewBox="0 0 64 64" fill="none" xmlns="http://www.w3.org/2000/svg">
<path d="M32 62C48.5685 62 62 48.5685 62 32C62 15.4315 48.5685 2 32 2C15.4315 2 2 15.4315 2 32C2 48.5685 15.4315 62 32 62Z" fill="#338AF3"/>
<path d="M56.7 33.1C56 32.7 55.2 33.2 55.2 33.9C54.9 38.8 46.3 40.1 42.2 40.1C38.1 40.2 29.3 38.7 29 33.9C29 33.2 28.2 32.8 27.5 33.1C25.4 34.2 24.7 36.3 25.2 38.4C26.1 42.2 30.8 44.9 34.8 46.1C34.5 46.8 34.4 47.5 34.3 48.2C34.2 49 35.4 49.3 36 48.8C38.3 47.1 41.9 46.4 44.9 46.4C46.2 46.4 46.2 44.6 44.9 44.6C42.2 44.6 39.3 45.1 36.9 46.2C37.8 44.1 39.9 42 42.2 41.9H42.3C47.1 42 54.8 40.3 56.8 35.8C57.1 36.6 57.1 37.5 56.8 38.3C55.8 41.5 52.3 42.8 49 43.7C47.8 44 48.3 45.8 49.5 45.4C53.7 44.3 57 42.6 58.7 38.8C59.5 36.8 58.7 34.4 56.7 33.1V33.1ZM35.6 44.4C32.3 43.5 29.8 41.9 27.8 39.3C27 38.2 26.7 36.7 27.4 35.6C28.9 39.1 33.8 40.9 38.2 41.5C37.2 42.3 36.3 43.3 35.6 44.4" fill="#FFDD3E"/>
<path d="M42 34.7C46.2526 34.7 49.7001 31.2526 49.7001 27C49.7001 22.7474 46.2526 19.3 42 19.3C37.7475 19.3 34.3 22.7474 34.3 27C34.3 31.2526 37.7475 34.7 42 34.7Z" fill="#FFDD3E"/>
<path d="M42 18.3C42.5 18.3 42.6 18 42.6 17.7C42.6 17.2 42 15.1 42 15.1C42 15.1 41.4 17.3 41.4 17.7C41.4 18 41.5 18.3 42 18.3Z" fill="#FFDD3E"/>
<path d="M45.2999 18.9C45.6999 19.1 45.9999 18.9 46.0999 18.6C46.2999 18.2 46.5 15.9 46.5 15.9C46.5 15.9 45.1 17.7 44.9 18.1C44.9 18.4 44.8999 18.8 45.2999 18.9V18.9ZM50.0999 30.3C49.8999 30.7 50.1 31 50.4 31.1C50.8 31.3 53.0999 31.5 53.0999 31.5C53.0999 31.5 51.3 30.1 50.9 29.9C50.6 29.9 50.1999 29.9 50.0999 30.3V30.3ZM38.7 35.1C38.3 34.9 38 35.1 37.9 35.4C37.7 35.8 37.5 38.1 37.5 38.1C37.5 38.1 38.8999 36.3 39.0999 35.9C39.0999 35.6 39.1 35.2 38.7 35.1V35.1ZM33.9 23.7C34.1 23.3 33.8999 23 33.5999 22.9C33.1999 22.7 30.9 22.5 30.9 22.5C30.9 22.5 32.6999 23.9 33.0999 24.1C33.3999 24.1 33.8 24.1 33.9 23.7V23.7ZM48.2 20.8C48.5 21.1 48.8999 21 49.0999 20.8C49.3999 20.5 50.5 18.5 50.5 18.5C50.5 18.5 48.5 19.6 48.2 19.9C47.9 20.2 47.9 20.5 48.2 20.8V20.8ZM48.2 33.2C47.9 33.5 48 33.8 48.2 34.1C48.5 34.4 50.5 35.5 50.5 35.5C50.5 35.5 49.3999 33.5 49.0999 33.2C48.7999 32.9 48.5 32.9 48.2 33.2ZM35.7999 33.2C35.4999 32.9 35.1 33 34.9 33.2C34.6 33.5 33.5 35.5 33.5 35.5C33.5 35.5 35.4999 34.4 35.7999 34.1C36.0999 33.8 36.0999 33.5 35.7999 33.2ZM35.7999 20.8C36.0999 20.5 35.9999 20.1 35.7999 19.9C35.4999 19.6 33.5 18.5 33.5 18.5C33.5 18.5 34.6 20.5 34.9 20.8C35.2 21.1 35.4999 21.1 35.7999 20.8V20.8ZM50.0999 23.7C50.2999 24.1 50.6 24.2 50.9 24C51.3 23.8 53.0999 22.4 53.0999 22.4C53.0999 22.4 50.8 22.7 50.4 22.8C50.1 23 49.8999 23.2 50.0999 23.7V23.7ZM45.2999 35.1C44.8999 35.3 44.8 35.6 45 35.9C45.2 36.3 46.5999 38.1 46.5999 38.1C46.5999 38.1 46.3 35.8 46.2 35.4C46 35.1 45.7999 34.9 45.2999 35.1V35.1ZM33.9 30.3C33.7 29.9 33.3999 29.8 33.0999 30C32.6999 30.2 30.9 31.6 30.9 31.6C30.9 31.6 33.1999 31.3 33.5999 31.2C33.8999 31 34.1 30.8 33.9 30.3V30.3ZM38.7 18.9C39.1 18.7 39.2 18.4 39 18.1C38.8 17.7 37.4 15.9 37.4 15.9C37.4 15.9 37.6999 18.1 37.7999 18.6C37.9999 18.9 38.2 19.1 38.7 18.9V18.9ZM43.7 18.4C44.1 18.5 44.4 18.2 44.4 17.9C44.5 17.5 44.2999 15.2 44.2999 15.2C44.2999 15.2 43.3 17.2 43.2 17.7C43.1 18 43.3 18.3 43.7 18.4ZM50.5999 28.7C50.4999 29.1 50.7999 29.4 51.0999 29.4C51.4999 29.5 53.7999 29.3 53.7999 29.3C53.7999 29.3 51.7999 28.3 51.2999 28.2C50.9999 28.1 50.6999 28.3 50.5999 28.7V28.7ZM40.2999 35.6C39.8999 35.5 39.5999 35.8 39.5999 36.1C39.4999 36.5 39.7 38.8 39.7 38.8C39.7 38.8 40.6999 36.8 40.7999 36.3C40.8999 36 40.6999 35.7 40.2999 35.6ZM33.4 25.3C33.5 24.8 33.2 24.6 32.9 24.6C32.5 24.5 30.2 24.7 30.2 24.7C30.2 24.7 32.2 25.7 32.7 25.8C33 25.9 33.3 25.7 33.4 25.3V25.3ZM46.9 19.7C47.3 19.9 47.5999 19.8 47.7999 19.5C48.0999 19.1 48.7 17 48.7 17C48.7 17 47 18.5 46.7 18.8C46.5 19.1 46.5 19.5 46.9 19.7ZM49.2999 31.9C49.0999 32.3 49.2 32.6 49.5 32.8C49.9 33.1 52 33.7 52 33.7C52 33.7 50.5 32 50.2 31.7C49.9 31.5 49.4999 31.5 49.2999 31.9V31.9ZM37.0999 34.3C36.6999 34.1 36.4 34.2 36.2 34.5C36 34.8 35.2999 37 35.2999 37C35.2999 37 36.9999 35.5 37.2999 35.2C37.4999 34.9 37.4999 34.5 37.0999 34.3V34.3ZM34.7 22.1C34.9 21.7 34.8 21.4 34.5 21.2C34.2 21 32 20.3 32 20.3C32 20.3 33.4999 22 33.7999 22.3C34.0999 22.5 34.5 22.5 34.7 22.1V22.1ZM49.2999 22.1C49.5999 22.5 49.9 22.5 50.2 22.3C50.6 22 52 20.3 52 20.3C52 20.3 49.8 21 49.5 21.2C49.2 21.5 48.9999 21.8 49.2999 22.1V22.1ZM46.9 34.3C46.5 34.6 46.5 34.9 46.7 35.2C47 35.6 48.7 37 48.7 37C48.7 37 47.9999 34.8 47.7999 34.5C47.4999 34.2 47.2 34 46.9 34.3V34.3ZM34.7 31.9C34.4 31.5 34.0999 31.5 33.7999 31.7C33.3999 32 32 33.7 32 33.7C32 33.7 34.2 33 34.5 32.8C34.8 32.5 35 32.2 34.7 31.9V31.9ZM37.0999 19.7C37.4999 19.4 37.4999 19.1 37.2999 18.8C36.9999 18.4 35.2999 17 35.2999 17C35.2999 17 36 19.2 36.2 19.5C36.5 19.8 36.7999 20 37.0999 19.7ZM50.5999 25.3C50.6999 25.7 50.9999 25.9 51.2999 25.8C51.6999 25.7 53.7999 24.7 53.7999 24.7C53.7999 24.7 51.4999 24.5 51.0999 24.6C50.6999 24.6 50.4999 24.8 50.5999 25.3V25.3ZM43.7 35.6C43.3 35.7 43.1 36 43.2 36.3C43.3 36.7 44.2999 38.8 44.2999 38.8C44.2999 38.8 44.5 36.5 44.4 36.1C44.4 35.7 44.2 35.5 43.7 35.6ZM33.4 28.7C33.3 28.3 33 28.1 32.7 28.2C32.3 28.3 30.2 29.3 30.2 29.3C30.2 29.3 32.5 29.5 32.9 29.4C33.3 29.4 33.5 29.2 33.4 28.7V28.7ZM40.2999 18.4C40.6999 18.3 40.8999 18 40.7999 17.7C40.6999 17.3 39.7 15.2 39.7 15.2C39.7 15.2 39.4999 17.5 39.5999 17.9C39.5999 18.3 39.7999 18.5 40.2999 18.4ZM16.5 51.6H15.4V55.3H13.2C14.3 56.2 15.4 56.9 16.6 57.7V51.6H16.5ZM15.4 8.7V12.4H16.5V6.3C15.3 7 14.2 7.8 13.1 8.7H15.4V8.7ZM12.9 8.8C12.6 9 12.3 9.3 12 9.6L15 16.1H12.5V12.4H11.4V16.1H8.89995L11.8 9.8C11 10.5 10.2 11.3 9.49995 12.2L7.19995 17.1L11.1 25.5H8.59995V21.8H7.49995V31.6H8.59995V27.5H11.2L9.69995 32L11.2 36.4H8.59995V32.3H7.49995V42.1H8.59995V38.4H11.1L7.19995 46.8L9.49995 51.7C10.2 52.5 11 53.3 11.8 54.1L8.89995 47.8H11.4V51.5H12.5V47.8H15L12 54.3C12.3 54.6 12.6 54.8 12.9 55.1L16.7 46.8L12.8 38.4H15.3V42.1H16.4V32.3H15.3V36.4H12.7L14.2 32L12.7 27.6H15.3V31.7H16.4V21.9H15.3V25.6H12.8L16.7 17.2L12.9 8.8V8.8ZM15.1 45.9H12.6V42.2H11.5V45.9H8.89995L12 39.3L15.1 45.9V45.9ZM12 35.2L11.2 32.9H12.8L12 35.2V35.2ZM12.8 31.1H11.2L12 28.8L12.8 31.1V31.1ZM12 24.8L8.89995 18.2H11.4V21.9H12.5V18.2H15L12 24.8" fill="#FFDD3E"/>
</svg>
