<svg width="64" height="64" viewBox="0 0 64 64" fill="none" xmlns="http://www.w3.org/2000/svg">
<path d="M62 32C62 18.9 53.7 7.80001 42 3.70001V60.3C53.7 56.2 62 45.1 62 32Z" fill="#D80027"/>
<path d="M2 32C2 45.1 10.4 56.2 22 60.3V3.70001C10.4 7.80001 2 18.9 2 32Z" fill="#0052B4"/>
<path d="M42 3.7C38.9 2.6 35.5 2 32 2C28.5 2 25.1 2.6 22 3.7V60.3C25.1 61.4 28.5 62 32 62C35.5 62 38.9 61.4 42 60.3V3.7Z" fill="#FFDA44"/>
<path d="M41.2 30.9H41.3V29.9L40.5 30.5L40.6 30.6L40.5 30.7V30.8H40C39.9 30.9 39.9 31 39.9 31.2V31.6C39.9 31.8 39.8 31.9 39.8 31.9L39.7 32V25.1C39.7 24.5 37.8 22.7 37.8 22.7L35.9 24.2L36 25.4C35.6 25.4 34.1 26.3 33.9 26.3C32.3 25.4 33.4 23.4 33.4 23.3L33.6 23.5C33.6 23.5 33.8 22.7 33.4 22.1L34.2 21.9C34.2 21.9 32.3 20.5 30.5 21.2C30.5 21 30.5 20.9 30.4 20.8L30.2 20.6L30.1 20.9C30.1 21 30 21 29.9 21H29.7V20.8C29.7 20.7 29.7 20.7 29.8 20.6L30.1 20.5L30 20.4C29.8 20.2 29.3 20.2 29.1 20.4L28.9 20.6L29.2 20.7C29.3 20.7 29.3 20.8 29.3 20.9V21H29.1C29 21 29 21 28.9 20.9L28.8 20.7L28.6 20.9C28.5 21 28.5 21.2 28.5 21.3C28.5 21.5 28.5 21.6 28.6 21.7L28.8 21.9L28.9 21.7C28.9 21.6 29 21.6 29.1 21.6H29.3V23C29.3 23.1 29.3 23.1 29.2 23.1L28.7 23.3L29.3 23.4C29.4 23.4 29.5 23.6 29.5 23.7L29.6 24.1L29.7 23.7C29.7 23.6 29.8 23.4 29.9 23.4L30.5 23.3C30.5 23.5 30.8 25.4 29.7 26.2C29.5 26.1 28 25.3 27.6 25.3L27.7 24.1L25.8 22.6C25.8 22.6 23.9 24.4 23.9 25V29.8L23.8 29.7L23.7 29.9C23.7 29.9 23.6 30 23.6 30.1C23.4 29.9 23.2 29.8 23.1 29.8L23 29.7V29.9C23 29.9 22.9 30.4 23 30.7H22.6V30.9C22.6 30.9 22.7 31.4 23.1 31.7C23.3 31.9 23.6 31.9 23.7 31.9L23.9 32.3V32.4C23.7 32.3 23.5 32.3 23.4 32.3H23L23.1 32.5C23.1 32.5 23.2 32.6 23.2 32.7H23L23.1 32.8C23.1 32.8 23.4 33.3 23.8 33.4H24C24 35.8 23.7 40.2 23.7 40.2L26.5 37.7C26.5 37.7 26 38.4 25.9 38.7C25.8 39.1 26.1 40 27.2 39.6L27.1 40.1L28 40.6C27.9 40.7 27.3 40.9 27.3 40.9L31.7 43.8L36.1 40.9C36.1 40.9 33.7 40 32.9 36.8L33.6 36.5C33.9 36.7 35.9 39.3 35.9 39.3L35.8 39.4H35.7C35.6 39.4 35.6 39.5 35.6 40.3V40.5L35.8 40.4C36.5 39.9 36.5 39.9 36.5 39.8C36.5 39.8 36.5 39.7 36.4 39.7H36.5C36.6 39.7 37.1 39.5 37.2 39.3C37.7 38.6 37.4 38 37.4 38C37.6 38.3 39.8 40.2 39.8 40.2C39.8 40.2 39.5 35.9 39.5 33.6L40 32.7H40.1L40.2 32.6V32.5C40.2 32.5 40.3 32.5 40.3 32.4C40.4 32.3 40.4 32.3 40.4 32.2C40.4 32.1 40.4 32.1 40.6 31.9C40.7 31.8 40.8 31.7 40.9 31.7C41.1 31.6 41.2 31.5 41.2 31.4C41.2 31.4 41.2 31.3 41 31L41.1 30.9C41.2 31 41.2 30.9 41.2 30.9V30.9ZM30.1 21.6C30 21.6 29.9 21.6 29.9 21.7V21.6H30.1C30.2 21.6 30.1 21.5 30.1 21.6ZM36.4 37.7C36.3 37.5 35.6 36.1 35.4 35.8C35.5 35.7 35.6 35.7 35.8 35.6C36 35.5 36.2 35.3 36.3 35.2C36.5 35.9 36.8 36.9 37.1 37.5C37.1 37.5 36.4 37.8 36.4 37.7V37.7ZM27.1 37.8L27 37.5C27.1 37.4 27.4 37.2 27.5 37C27.7 36.6 27.6 36.2 27.6 36.1V35.9L27.3 36C27.3 35.9 27.4 35.3 27.5 35C27.6 35.1 27.8 35.3 28 35.4C28.1 35.5 28.2 35.5 28.4 35.6C28.2 36.8 27.1 37.8 27.1 37.8V37.8ZM30 23.2C29.9 23.2 29.9 23.1 29.9 23.1V22.7C30.2 22.8 30.4 23 30.5 23.4L30 23.2ZM28.4 39.6L27.8 39.2C27.8 39.1 29.7 36.9 29.9 36.6L30.6 36.9C30.3 37.6 29.2 39.8 28.2 40.6L28.4 39.6Z" fill="#997361"/>
<path d="M27.4999 39.2L28.1999 39.6L27.9999 40.5L27.2999 40L27.4999 39.2Z" fill="#FFD200"/>
<path d="M24 31.2L23.7 31.3L26.7 38H27L24 31.2ZM27.6 39.1L27.4 39.3L27.5 39.6L27.7999 39.5L27.6 39.1" fill="#FFD200"/>
<path d="M24.9001 36.5L25.3001 37.1L24.9001 37.2L26.0001 37.7L26.6001 37.5L26.5001 37.1L24.9001 36.5ZM26.9001 35.5L26.4001 36.2L26.8001 37.5L27.4001 37L27.5001 36.2L27.1001 36.4L26.9001 35.5V35.5ZM25.7001 35.4L24.9001 35.5L24.2001 35.2L24.7001 35L24.3001 34.5H24.9001L25.7001 35.4" fill="#699635"/>
<path d="M25.9 33.4L26 34L26.3 33.8V34.9L25.7001 35.5L25.2001 34.6L25.3 34L25.9 33.4V33.4ZM23.2001 32.3L24 32.4L24.6 33.2H23.8L23.2001 32.6L23.6 32.5L23.2001 32.3V32.3ZM24.6 31.5L24.8 32L25.1 31.7L25.3 32.7L24.9 33.4L24.3 32L24.6 31.5V31.5ZM23.1 29.9L23.2001 30.6L23.4 30.9L22.8 30.7L23.2001 31.4L23.9 31.6L24.2001 30.8L23.8 29.9L23.7001 30.4L23.1 29.9" fill="#699635"/>
<path d="M40.7 30.5L40.8 30.6L40.7 30.7V30.9H40.1V31.6L39.8 32L39.9 32.2L39.8 32.3V32.6L37.7 36.6L37.2 37.1L37.3 37.6L37 37.7L37.1 38.1L37.5 38L37.4 37.7L37.8 37.5L37.9 36.8L40 32.8L40.2 32.6V32.5L40.4 32.4L40.6 31.9L41.1 31.5L40.9 31L41.1 30.9V30.7H41.2V30.1L40.7 30.5V30.5ZM36.2 39.5V39.6H36V40.4L36.6 39.9L36.5 39.7L36.6 39.6L36.5 39.4H36.4L36.2 39.5" fill="#FFD200"/>
<path d="M36.3 27.3C36.3 27 36.7 26.7 36.7 26.7H26.9C26.9 26.7 27.3 27 27.3 27.3V34.6C27.3 34.8 27.4 34.9 27.5 35C27.6 35.1 27.8 35.3 28 35.4C28.6 35.8 29.7 36.3 30.5 36.6C31.2 36.9 31.5 37 31.8 37.5C32.2 37.1 32.4 36.9 33.1 36.6C33.9 36.2 35 35.8 35.6 35.4C35.8 35.3 36 35.1 36.1 35C36.2 34.9 36.3 34.8 36.3 34.6V27.3Z" fill="#F5D402"/>
<path d="M27.6 31.4V27.3C27.6 27.1 27.5 26.9 27.5 26.9H36.3C36.3 26.9 36.2 27 36.2 27.3V31.4L31.9 32.7L27.6 31.4" fill="#D80027"/>
<path d="M36.0999 31.4H27.7V34.6C27.7 34.8 27.8999 35.1 28.7999 35.6C30.3999 36.4 31.6 36.7 31.9 37.2C32.3 36.8 33.5 36.4 35 35.6C36 35.1 36.0999 34.8 36.0999 34.6V31.4" fill="#0052B4"/>
<path d="M28.9 33.3L28.1 34.3L28.8 35.4L30.1 35.1L30.2 33.8L28.9 33.3V33.3ZM33.5 34.5C33.5 34.9 33.9 35.3 34.3 35.4C34.2 35.3 34.2 35.1 34.2 35C34.1 34.5 34.5 34.1 35.1 34.1H35.4C35.2 33.8 34.8 33.6 34.4 33.6C33.9 33.6 33.5 34 33.5 34.5V34.5ZM29.6 29.2L31 30.7L31.4 30.5L31.9 30.7L32.4 30.5L32.8 30.7L34.2 29.2L33.7 27.6L34.8 29.3L33.3 31.2L33.6 32L32.8 32.3L32.7 35.2L33.1 35.6L31.9 36.3L30.7 35.6L31.1 35.2L31 32.3L30.2 32L30.5 31.2L29 29.3L30.1 27.6L29.6 29.2" fill="#FFE62E"/>
<path d="M31.8 27.7L32 28.2L32.5 28L32.3 28.5L32.8 28.7L32.3 28.9L32.5 29.4L32 29L31.8 29.5L31.7 29L31.2 29.2L31.4 28.7L30.9 28.5L31.4 28.3L31.2 27.8L31.7 28L31.8 27.7ZM29.7 31.4L28.9 32L28 31.4L28.9 30.9L29.7 31.4ZM35.6 31.4L34.8 32L34 31.4L34.8 30.9L35.6 31.4Z" fill="#FFE62E"/>
</svg>
