<svg width="50" height="50" viewBox="0 0 50 50" fill="none" xmlns="http://www.w3.org/2000/svg">
<g clip-path="url(#clip0_167_15)">
<rect x="-2.08334" y="-4.16663" width="92.5926" height="96.1538" fill="black"/>
<path fill-rule="evenodd" clip-rule="evenodd" d="M20.0008 20.4241H27.2225V23.8039C28.2628 21.86 30.9305 20.1135 34.938 20.1135C42.6205 20.1135 44.4444 23.9829 44.4444 31.0824V44.2307H36.6667V32.6992C36.6667 28.6562 35.6264 26.3762 32.978 26.3762C29.305 26.3762 27.7786 28.8334 27.7786 32.6974V44.2307H20.0008V20.4241V20.4241ZM6.66388 43.9201H14.4417V20.1135H6.66388V43.9201V43.9201ZM15.5558 12.3509C15.5561 12.9634 15.4268 13.5699 15.1755 14.1351C14.9241 14.7002 14.5557 15.2128 14.0917 15.643C13.1513 16.5211 11.8785 17.0126 10.5528 17.0096C9.22936 17.0087 7.95948 16.5185 7.01776 15.6449C6.5554 15.2132 6.18824 14.7 5.93732 14.1348C5.68641 13.5695 5.55667 12.9633 5.55554 12.3509C5.55554 11.1141 6.08054 9.93024 7.01971 9.05697C7.9606 8.18217 9.23101 7.69171 10.5547 7.69226C11.8808 7.69226 13.1525 8.1837 14.0917 9.05697C15.0289 9.93024 15.5558 11.1141 15.5558 12.3509Z" fill="white"/>
</g>
<defs>
<clipPath id="clip0_167_15">
<rect width="50" height="50" rx="10" fill="white"/>
</clipPath>
</defs>
</svg>
