<svg width="36" height="24" viewBox="0 0 36 24" fill="none" xmlns="http://www.w3.org/2000/svg">
<rect x="5" y="3" width="25" height="18" rx="6" fill="white"/>
<path d="M34.2711 3.7656C34.073 3.0389 33.6869 2.38098 33.154 1.86178C32.6061 1.32662 31.9346 0.943806 31.2028 0.749473C28.464 0.00743355 17.4915 0.00743372 17.4915 0.00743372C12.9172 -0.0460641 8.34404 0.189233 3.79779 0.711996C3.06598 0.920686 2.39569 1.31205 1.84654 1.85129C1.30696 2.38496 0.916123 3.04305 0.711957 3.7641C0.221509 6.48003 -0.0167844 9.23772 0.000289707 12C-0.0172103 14.7598 0.220498 17.5166 0.711957 20.2359C0.911748 20.9539 1.30112 21.609 1.84217 22.1382C2.38321 22.6674 3.05696 23.0496 3.79779 23.252C6.573 23.9925 17.4915 23.9925 17.4915 23.9925C22.0717 24.0461 26.6507 23.8108 31.2028 23.288C31.9346 23.0937 32.6061 22.7108 33.154 22.1757C33.6867 21.6566 34.0723 20.9986 34.2697 20.2719C34.7729 17.557 35.0176 14.7981 35.0003 12.0345C35.0381 9.2591 34.7938 6.48726 34.2711 3.7641V3.7656ZM14.0032 17.1328V6.86868L23.1324 12.0015L14.0032 17.1328Z" fill="black"/>
</svg>
