<?xml version="1.0" encoding="UTF-8"?>
<svg width="1806px" height="900px" viewBox="0 0 1806 753" version="1.1" xmlns="http://www.w3.org/2000/svg" xmlns:xlink="http://www.w3.org/1999/xlink">
    <title>Path 8</title>
    <g id="Sales-Page" stroke="none" stroke-width="1" fill="none" fill-rule="evenodd">
        <g id="Salespage">
            <rect fill="#FFFFFF" x="0" y="0" width="1806" height="13084"></rect>
            <path d="M-244,643 C97,815 51,893 993,662 C1621,508 2115.33333,532 2476,734 L2054,-174 L-244,-287 L-476,118 C-548.666667,353.333333 -471.333333,528.333333 -244,643 Z" id="Path-8" fill="#F5F7FA" transform="translate(986.798889, 259.384547) rotate(4.000000) translate(-986.798889, -259.384547) "></path>
            <path d="M2058.78371,29 C2053.72518,29 2048.60175,27.7066181 2043.93258,24.9825323 L1924.50378,-44.668477 L1805.06524,24.9825323 C1791.20051,33.0685642 1773.29933,28.5624856 1765.08043,14.9133149 C1756.86477,1.26414414 1761.44633,-16.3545912 1775.31106,-24.4374296 L1897.56278,-95.7331098 C1914.18878,-105.42549 1934.835,-105.419103 1951.44153,-95.7331098 L2073.68676,-24.4374296 C2087.55474,-16.3513977 2092.1363,1.26733767 2083.9174,14.9133149 C2078.4695,23.966988 2068.75477,29 2058.78371,29" id="Fill-3" fill="#D1D6DE" opacity="0.257254464"></path>
            <g id="Group-2" transform="translate(264.000000, 79.000000)"></g>
        </g>
    </g>
</svg>