<svg width="21" height="21" viewBox="0 0 21 21" fill="none" xmlns="http://www.w3.org/2000/svg">
<path d="M16.8992 1.69891L6.85843 14.8999L3.18942 9.32604C2.85847 8.86677 2.41058 8.59975 1.9391 8.58063C1.46763 8.56151 1.00894 8.79177 0.658643 9.22342C0.308346 9.65506 0.0934672 10.2548 0.058791 10.8976C0.0241147 11.5404 0.172317 12.1767 0.472509 12.6739L5.4102 20.1703C5.57496 20.4205 5.77494 20.6228 5.9982 20.7651C6.22145 20.9074 6.4634 20.9867 6.70959 20.9984H6.77456C7.24827 20.9984 7.70352 20.7473 8.04442 20.2978L19.4448 5.30343C19.7948 4.84321 19.9966 4.21187 20.0059 3.54831C20.0152 2.88474 19.8312 2.2433 19.4944 1.7651C19.1576 1.28689 18.6956 1.0111 18.21 0.998385C17.7244 0.98567 17.255 1.23708 16.9051 1.6973L16.8992 1.69891Z" fill="#E32535"/>
</svg>
