<svg width="589" height="676" viewBox="0 0 589 676" fill="none" xmlns="http://www.w3.org/2000/svg">
<path d="M191.516 270.48L120.274 212.349L7.75828 337.126L191.516 270.48Z" fill="#00B3A7" stroke="#00B3A7"/>
<path d="M336.025 478.134L334.787 420.239L197.617 476.617L336.025 478.134Z" fill="#00B3A7" stroke="#00B3A7"/>
<path fill-rule="evenodd" clip-rule="evenodd" d="M359.151 243.5L423.651 231L454.151 675.5H343.151H341.651H300.651L297.651 581.5C296.318 570 286.651 547 258.651 547C230.651 547 221.318 570 220.151 581.5V675.5H180.651L180.655 675H15.1509L25.1509 340.5L184.151 289.5V485.107L349.005 493.965L359.151 243.5Z" fill="#E92227"/>
<path d="M423.651 231L424.15 230.966L424.111 230.402L423.556 230.509L423.651 231ZM359.151 243.5L359.056 243.009L358.667 243.084L358.651 243.48L359.151 243.5ZM454.151 675.5V676H454.686L454.65 675.466L454.151 675.5ZM300.651 675.5L300.151 675.516L300.167 676H300.651V675.5ZM297.651 581.5L298.151 581.484L298.15 581.463L298.148 581.442L297.651 581.5ZM220.151 581.5L219.653 581.45L219.651 581.475V581.5H220.151ZM220.151 675.5V676H220.651V675.5H220.151ZM180.651 675.5L180.151 675.496L180.147 676H180.651V675.5ZM180.655 675L181.155 675.004L181.159 674.5H180.655V675ZM15.1509 675L14.6511 674.985L14.6357 675.5H15.1509V675ZM25.1509 340.5L24.9982 340.024L24.6617 340.132L24.6511 340.485L25.1509 340.5ZM184.151 289.5H184.651V288.815L183.998 289.024L184.151 289.5ZM184.151 485.107H183.651V485.581L184.124 485.607L184.151 485.107ZM349.005 493.965L348.978 494.465L349.484 494.492L349.504 493.986L349.005 493.965ZM423.556 230.509L359.056 243.009L359.246 243.991L423.746 231.491L423.556 230.509ZM454.65 675.466L424.15 230.966L423.152 231.034L453.652 675.534L454.65 675.466ZM343.151 676H454.151V675H343.151V676ZM343.151 675H341.651V676H343.151V675ZM341.651 675H300.651V676H341.651V675ZM301.151 675.484L298.151 581.484L297.151 581.516L300.151 675.516L301.151 675.484ZM298.148 581.442C297.471 575.611 294.69 566.889 288.533 559.614C282.361 552.322 272.808 546.5 258.651 546.5V547.5C272.494 547.5 281.774 553.178 287.769 560.261C293.779 567.361 296.497 575.889 297.154 581.558L298.148 581.442ZM258.651 546.5C244.494 546.5 235.022 552.323 228.954 559.618C222.901 566.894 220.245 575.618 219.653 581.45L220.648 581.55C221.223 575.882 223.818 567.356 229.723 560.257C235.613 553.177 244.808 547.5 258.651 547.5V546.5ZM219.651 581.5V675.5H220.651V581.5H219.651ZM220.151 675H180.651V676H220.151V675ZM181.151 675.504L181.155 675.004L180.155 674.996L180.151 675.496L181.151 675.504ZM15.1509 675.5H180.655V674.5H15.1509V675.5ZM24.6511 340.485L14.6511 674.985L15.6507 675.015L25.6507 340.515L24.6511 340.485ZM183.998 289.024L24.9982 340.024L25.3036 340.976L184.304 289.976L183.998 289.024ZM184.651 485.107V289.5H183.651V485.107H184.651ZM184.124 485.607L348.978 494.465L349.032 493.466L184.178 484.608L184.124 485.607ZM358.651 243.48L348.505 493.945L349.504 493.986L359.65 243.52L358.651 243.48Z" fill="#E92227"/>
<path fill-rule="evenodd" clip-rule="evenodd" d="M488.666 192.297C478.781 204.901 463.411 213 446.15 213C433.994 213 422.775 208.983 413.75 202.204C408.824 208.76 400.982 213 392.15 213C377.239 213 365.15 200.912 365.15 186C365.15 171.088 377.239 159 392.15 159C392.15 129.177 416.327 105 446.15 105C460.692 105 473.891 110.748 483.6 120.095C489.38 116.85 496.049 115 503.15 115C525.242 115 543.15 132.909 543.15 155C543.15 177.091 525.242 195 503.15 195C498.042 195 493.157 194.042 488.666 192.297Z" fill="#00B3A7"/>
<path fill-rule="evenodd" clip-rule="evenodd" d="M563.73 58.5103C558.023 70.1616 547.362 78 535.15 78C526.482 78 518.594 74.0503 512.706 67.5903C509.31 73.7935 502.721 78 495.15 78C484.104 78 475.15 69.0459 475.15 58C475.15 46.9541 484.104 38 495.15 38C497.613 38 499.972 38.4448 502.151 39.2593C502.151 39.1729 502.15 39.0864 502.15 39C502.15 17.4609 516.925 0 535.15 0C547.362 0 558.023 7.83838 563.73 19.4897C565.152 19.1689 566.632 19 568.15 19C579.196 19 588.15 27.9541 588.15 39C588.15 50.0459 579.196 59 568.15 59C566.632 59 565.152 58.8311 563.73 58.5103Z" fill="#00B3A7"/>
<rect x="74" y="369" width="15" height="15" fill="white"/>
<rect x="74" y="395" width="15" height="15" fill="white"/>
<rect x="74" y="421" width="15" height="15" fill="white"/>
<rect x="74" y="447" width="15" height="15" fill="white"/>
<rect x="100" y="369" width="14" height="15" fill="white"/>
<rect x="100" y="395" width="14" height="15" fill="white"/>
<rect x="100" y="421" width="14" height="15" fill="white"/>
<rect x="100" y="447" width="14" height="15" fill="white"/>
<rect x="125" y="369" width="15" height="15" fill="white"/>
<rect x="125" y="395" width="15" height="15" fill="white"/>
<rect x="125" y="421" width="15" height="15" fill="white"/>
<rect x="125" y="447" width="15" height="15" fill="white"/>
<rect x="74" y="529" width="15" height="15" fill="white"/>
<rect x="74" y="555" width="15" height="15" fill="white"/>
<rect x="74" y="581" width="15" height="15" fill="white"/>
<rect x="74" y="607" width="15" height="15" fill="white"/>
<rect x="100" y="529" width="14" height="15" fill="white"/>
<rect x="100" y="555" width="14" height="15" fill="white"/>
<rect x="100" y="581" width="14" height="15" fill="white"/>
<rect x="100" y="607" width="14" height="15" fill="white"/>
<rect x="125" y="529" width="15" height="15" fill="white"/>
<rect x="125" y="555" width="15" height="15" fill="white"/>
<rect x="125" y="581" width="15" height="15" fill="white"/>
<rect x="125" y="607" width="15" height="15" fill="white"/>
<rect x="357" y="560" width="16" height="24" fill="white"/>
<rect x="357" y="560" width="16" height="24" fill="white"/>
<rect x="357" y="560" width="16" height="24" fill="white"/>
<rect x="385" y="560" width="16" height="24" fill="white"/>
<rect x="385" y="602" width="16" height="16" fill="white"/>
<rect x="357" y="602" width="16" height="16" fill="white"/>
</svg>
