<svg width="555" height="675" viewBox="0 0 555 675" fill="none" xmlns="http://www.w3.org/2000/svg">
<path fill-rule="evenodd" clip-rule="evenodd" d="M141 557.297H62.2313H62.0001V557.541L0 622.89L21.6679 645.73L62.0001 603.219V674.297H141V603.326L181.23 645.731L202.899 622.891L141 557.647V557.297Z" fill="#00B3A7"/>
<path fill-rule="evenodd" clip-rule="evenodd" d="M302 557.297H223.231H223V557.541L161 622.89L182.668 645.73L223 603.219V674.297H302V603.326L342.23 645.731L363.899 622.891L302 557.647V557.297Z" fill="#00B3A7"/>
<path fill-rule="evenodd" clip-rule="evenodd" d="M463 557.297H384.231H384V557.541L322 622.89L343.668 645.73L384 603.219V674.297H463V603.326L503.23 645.731L524.899 622.891L463 557.647V557.297Z" fill="#00B3A7"/>
<circle cx="101" cy="504.297" r="39" fill="#00B3A7"/>
<circle cx="262" cy="504.297" r="39" fill="#00B3A7"/>
<circle cx="423" cy="504.297" r="39" fill="#00B3A7"/>
<path fill-rule="evenodd" clip-rule="evenodd" d="M304.954 356.909C431.519 334.239 522.438 244.89 510.908 150.894C510.027 143.713 508.572 136.702 506.579 129.883C535.273 119.749 555 98.6648 555 74.2966C555 40.0549 516.049 12.2966 468 12.2966C446.289 12.2966 426.436 17.9641 411.194 27.3362C364.223 4.78834 304.877 -5.11791 242.142 2.57789C105.807 19.3015 5.09341 112.819 17.1928 211.456C27.3881 294.569 114.429 354.796 223.139 361.689C221.774 365.552 221.335 369.601 221.993 373.66C224.751 390.663 245.725 401.408 268.84 397.66C291.954 393.911 308.457 377.088 305.7 360.084C305.524 359 305.274 357.941 304.954 356.909ZM459.7 364.084C462.457 381.088 445.954 397.911 422.84 401.66C399.725 405.408 378.751 394.663 375.993 377.66C373.236 360.657 389.738 343.833 412.853 340.085C435.968 336.336 456.942 347.081 459.7 364.084ZM122 404.297C140.777 404.297 156 393.104 156 379.297C156 365.49 140.777 354.297 122 354.297C103.222 354.297 87.9999 365.49 87.9999 379.297C87.9999 393.104 103.222 404.297 122 404.297ZM257 433.297C264.732 433.297 271 427.924 271 421.297C271 414.669 264.732 409.297 257 409.297C249.268 409.297 243 414.669 243 421.297C243 427.924 249.268 433.297 257 433.297ZM101 441.297C111.493 441.297 120 435.924 120 429.297C120 422.669 111.493 417.297 101 417.297C90.5065 417.297 81.9999 422.669 81.9999 429.297C81.9999 435.924 90.5065 441.297 101 441.297ZM457 427.797C457 435.253 449.837 441.297 441 441.297C432.163 441.297 425 435.253 425 427.797C425 420.341 432.163 414.297 441 414.297C449.837 414.297 457 420.341 457 427.797Z" fill="#E92227"/>
<rect x="231" y="203.297" width="70" height="70" fill="white"/>
<rect x="324" y="203.297" width="70" height="70" fill="white"/>
<rect x="142" y="203.297" width="70" height="70" fill="white"/>
<rect x="159" y="220.297" width="12" height="12" fill="#E92227"/>
<rect x="183" y="220.297" width="12" height="12" fill="#E92227"/>
<rect x="183" y="244.297" width="12" height="12" fill="#E92227"/>
<rect x="159" y="244.297" width="12" height="12" fill="#E92227"/>
<rect x="231" y="117.297" width="70" height="70" fill="white"/>
<rect x="248" y="134.297" width="12" height="12" fill="#E92227"/>
<rect x="272" y="134.297" width="12" height="12" fill="#E92227"/>
<rect x="272" y="158.297" width="12" height="12" fill="#E92227"/>
<rect x="248" y="158.297" width="12" height="12" fill="#E92227"/>
<path d="M177 146.297L217.703 189.047H136.297L177 146.297Z" fill="white"/>
<path d="M266 60.2969L306.703 103.047H225.297L266 60.2969Z" fill="white"/>
<path d="M359 146.297L399.703 189.047H318.297L359 146.297Z" fill="white"/>
</svg>
