<svg width="539" height="705" viewBox="0 0 539 705" fill="none" xmlns="http://www.w3.org/2000/svg">
<path d="M66 100V142.477C66 146.691 63.3581 150.453 59.3941 151.884L27.92 163.24C22.3456 165.252 19.7334 171.642 22.3028 176.982L39.9437 213.648C41.7764 217.457 41.016 222.007 38.0443 225.013L6.8325 256.588C3.02792 260.437 2.97559 266.614 6.71442 270.527L37.7867 303.044C40.8723 306.273 41.4425 311.157 39.1838 315.01L22.684 343.157C19.842 348.005 21.5519 354.242 26.469 356.963L63.136 377.255C66.6838 379.218 68.6948 383.13 68.2273 387.157L63.6765 426.364C63.0306 431.929 67.0812 436.938 72.6576 437.472L113.01 441.331C117.204 441.733 120.698 444.72 121.744 448.802L132.293 489.941C133.749 495.62 139.755 498.833 145.287 496.894L177.53 485.593C181.176 484.315 185.232 485.251 187.948 487.999L221.065 521.492C224.707 525.175 230.56 525.468 234.551 522.164L264.799 497.131C268.42 494.135 273.638 494.064 277.338 496.96L308.48 521.332C313.073 524.927 319.755 523.844 322.978 518.982L343.017 488.754C345.145 485.544 348.928 483.841 352.743 484.377L397.721 490.696C402.941 491.43 407.833 487.986 408.904 482.826L416.346 446.968C417.309 442.327 421.398 439 426.138 439H462.5C468.023 439 472.5 434.523 472.5 429V385.737C472.5 381.92 474.673 378.436 478.101 376.757L512.848 359.738C517.677 357.372 519.771 351.61 517.587 346.696L502.409 312.545C500.67 308.632 501.615 304.045 504.76 301.139L531.993 275.975C535.915 272.351 536.298 266.284 532.862 262.196L503.555 227.325C501.077 224.377 500.513 220.267 502.104 216.76L517.97 181.781C520.003 177.3 518.474 172.006 514.365 169.299L483.498 148.964C480.69 147.114 479 143.976 479 140.613V100C479 94.4771 474.523 90 469 90H428.902C424.747 90 421.026 87.4311 419.552 83.5465L402.782 39.3339C401.149 35.0279 396.786 32.3942 392.215 32.9548L352.274 37.8532C348.976 38.2576 345.693 36.998 343.512 34.4918L319.548 6.95062C316.131 3.02328 310.272 2.37475 306.078 5.45962L275.926 27.6409C272.401 30.2339 267.599 30.2339 264.074 27.6409L234.265 5.71201C229.931 2.52399 223.852 3.33609 220.507 7.54985L191.996 43.4655C189.562 46.5324 185.561 47.8962 181.761 46.955L144.959 37.8423C139.696 36.539 134.353 39.6677 132.914 44.8955L122.522 82.6536C121.328 86.9931 117.381 90 112.88 90H76C70.4771 90 66 94.4771 66 100Z" fill="#E92227" stroke="#E92227"/>
<circle cx="270" cy="264" r="195" fill="white"/>
<path d="M159 627.5L192 516C196 522.167 207.1 535 219.5 537C231.9 539 255 523.833 265 516L228.5 653.5L204 602L159 627.5Z" fill="#00B3A7"/>
<path d="M324.5 703L275 519C283.333 525 303.3 537 316.5 537C329.7 537 343.333 523 348.5 516L392 684L348.5 653.5L324.5 703Z" fill="#00B3A7"/>
<path d="M159 627.5L192 516C196 522.167 207.1 535 219.5 537C231.9 539 255 523.833 265 516L228.5 653.5L204 602L159 627.5Z" stroke="#00B3A7"/>
<path d="M324.5 703L275 519C283.333 525 303.3 537 316.5 537C329.7 537 343.333 523 348.5 516L392 684L348.5 653.5L324.5 703Z" stroke="#00B3A7"/>
<circle cx="270" cy="264" r="175" stroke="#00B3A7" stroke-width="10"/>
<path fill-rule="evenodd" clip-rule="evenodd" d="M276 156V197H313V364H363V197V156H313H276Z" fill="#00B3A7"/>
<path fill-rule="evenodd" clip-rule="evenodd" d="M217.706 329.986L214.198 364.55L233.098 364.55L236.666 329.986H261V310.986H238.627L241.93 278.986H268V259.986H243.891L247.198 227.949L228.06 227.949L224.809 259.986H195.697L199 227.987L179.862 227.987L176.614 259.986H148V278.986H174.686L171.439 310.986H141V329.986H169.511L166 364.588L184.9 364.588L188.472 329.986H217.706ZM219.634 310.986L222.881 278.986H193.736L190.433 310.986H219.634Z" fill="#00B3A7"/>
</svg>
