<?xml version="1.0" encoding="utf-8"?>
<!-- Generator: Adobe Illustrator 22.0.1, SVG Export Plug-In . SVG Version: 6.00 Build 0)  -->
<svg version="1.1" id="Layer_1" xmlns="http://www.w3.org/2000/svg" xmlns:xlink="http://www.w3.org/1999/xlink" x="0px" y="0px"
	 viewBox="0 0 528.7 595.3" style="enable-background:new 0 0 528.7 595.3;" xml:space="preserve">
<style type="text/css">
	.st0{fill:#E32535;}
	.st1{fill:#FFFFFF;}
	.st2{fill:none;}
</style>
<path class="st0" d="M341.3,462.4v16.8h-2.4v-16.8H333v-1.9h14.3v1.9H341.3z M367.8,479.2v-16.8l-6.6,16.8H359l-6.6-16.8v16.8h-2.2
	v-18.7h3.9l6.2,15.8l6-15.8h3.9v18.7H367.8z M318.9,553.5c-1.3-9.3-2.6-18.6-3.9-27.8c-29.9,4.2-59.7,8.4-89.6,12.6
	c3.4,24.1,4.5,53.3,35.4,56.7C286.2,597.7,323.3,584.9,318.9,553.5L318.9,553.5z M383.1,56.3C266.9-51.1,39.6,0.8,4.2,163.6
	c-14.6,67.5,10.2,143.2,51.4,196.9c34.2,44.6,80.6,71.7,125.9,103.1c7.6,5.3,14.9,10.9,21.4,17.6c2.7,2.7,15.5,23.2,18.2,22.9
	c17.7-2.5,74.6-10.5,85.3-12c0,0,12.3-29.1,14.5-32.7c9.9-16.4,23.9-30.4,36.4-44.9c37.4-43.2,69-90.6,81.1-147.3
	c13.8-65,6.3-138.2-36.6-191C400.9,75.2,388.8,61.6,383.1,56.3z M522,34.2c-10.7,2.2-18.1,3.1-28.6,5c-7.8-8.2-15.5-14.9-24.7-23.8
	c-2.1-2-4.8-0.8-5,1.6c-0.9,10.1-2.5,20-3.8,30c-8,4.2-15.3,8.6-23.8,13.4c-2.1,1.2-2.5,3.8-0.4,5c5.2,3,26,16.8,26.2,17.1
	c0.6,1,1,23.5,1.2,33.6c0.1,2.2,3.4,2.5,4.6,1c8.5-9.8,15.2-18.1,22.6-27.7c13,5.4,20.8,7.5,33.1,14.5c2.5,1.4,4.8-1.7,3.5-4
	c-6.8-11.8-16.8-34.4-16.2-35.5c3.7-7.1,12.1-21.1,14.6-26.5C526.4,35.8,524.4,33.7,522,34.2z M526.8,151.7
	c-8.4-1.1-13.5-2-21.3-3.2c-2.8-8-5.6-13.6-9.2-22.5c-0.8-2.1-3.1-2.1-4-0.4c-3.7,6.7-7.9,12.9-11.9,19.4
	c-7.5-0.5-13.2-0.9-20.9-1.8c-1.8-0.2-2.9,1.8-1.8,3.4c2.7,3.7,12,16,12.5,18.8c0.2,1.1-6.4,17.5-9.3,24.6c-0.7,1.5,1.5,2.7,2.9,2.1
	c9.4-4.4,16-7.8,24-12c7.3,7.7,12,11.6,18.3,20.1c1.3,1.8,3.8,0.3,3.7-1.6c-0.6-10.1-0.8-28.1-0.5-28.8c0.5-1.1,15.1-11.3,18.5-14.3
	C529.3,154.1,528.6,151.9,526.8,151.7z"/>
<path class="st1" d="M130.7,304.6c2.1-12.2-1.4-25.4-1.4-25.4l-8.8,2.5c1.8,8,2.4,13.7,1.9,18.6c-6.1-3.8-14-10.3-21-21
	c-0.4-0.6-0.8-1.3-1.2-1.9c2.2-6.1,5.7-13,6.9-16.6c5-15.9-1.1-26.5-12.8-24c-7.2,1.5-15.6,4.7-15,15.5c0.4,5.9,3.4,14,10.7,25.2
	l0.3,0.5c0,0-9.3,18.2-4.5,29c4.6,10.3,12.5,18.6,25,17.4c5.8-0.6,11.5-2.4,15.1-7c0.9-1.2,1.9-3.6,1.9-3.6c5.7,1.8,8.8,0.8,8.8,0.8
	l-1.7-8.6C134.9,306,132.1,305.2,130.7,304.6z M93.4,243.4c12.2-2.5,6,14.5,3,23.1c-0.2,0.6-0.5,1.3-0.8,2.1
	C87.4,254.9,84,245.4,93.4,243.4z M112.6,315.6c-16.9,3.5-21.6-18.4-16.4-29.3c6.8,9,15.1,18,24.9,24.3
	C119,313.2,116,314.9,112.6,315.6z M35.4,120.8l23.8-2l6.6,78.3l43.3-6.8l2.7,28.2l-67.6,7.4L35.4,120.8z M153.5,247.6l25.3,0.1
	l-0.4,88.7l41.8-0.8l-1.2,25.6l-65.9-1.9L153.5,247.6z M119.3,118.8l78.7,1.5c0,0,2.8,44.6-2.5,68.9c-5.3,24.3-29,29.1-43.9,27.9
	c-14.9-1.2-28-17.9-29-35L119.3,118.8z M305.7,117.9l18.1-7.8l21.9,45.9l11.9-54.6l24-0.9l-35.3,140.7l-23.5,0.8l16.4-62.4
	L305.7,117.9z M386.2,307.9c-0.8,22-7,58.3-34.6,58.1c-29.1-0.2-35.7-32.8-35.8-57c-0.1-22.8,7.9-56.2,34.7-56.9
	c16-0.4,25.1,5.2,29.7,17.2C384.8,280.9,386.6,295.4,386.2,307.9C385.6,324.6,386.5,299.1,386.2,307.9z M245.2,319.7
	c2.1,4.8,8,17.2,23.2,16.9c10.3-0.2,30.4-12.9,30.4-12.9v20.1c-4.8,6.7-18.8,15.1-33,15.1c0,0-28.9,4.4-43.7-49
	c-4.4-15.9-0.8-40.2,11.1-52.6c7.4-7.8,18-8.5,32.1-7.1c36.5,3.6,33.4,52.1,33.4,52.1h-54.8C243.8,302.4,241.8,312.1,245.2,319.7z
	 M299.7,128.3v21.9c0,0-19.2-9.3-33.2-9.3c-14,0-31.5,4.9-31.5,28.8c0,23.8,17,23.4,24.3,23.4c7.4,0,30-6.4,36.6-14.7v22.9
	c0,0-19.4,18.2-50.9,18.2c-31.5,0-34.9-38.3-34.9-51.9c0-18.9,22.1-51.6,51.4-51.9C290.8,115.3,299.7,128.3,299.7,128.3z"/>
<rect x="0" y="0" class="st2" width="528.7" height="595.3"/>
</svg>
