<svg xmlns="http://www.w3.org/2000/svg" viewBox="3045 1321 155.818 60.871"><defs><style>.cls-1{fill:#636567}</style></defs><g id="logo" transform="translate(3045 1321.022)"><path id="Path_3551" data-name="Path 3551" class="cls-1" d="M102.384 66.6a10.662 10.662 0 0 1-1.5-.292 2.146 2.146 0 0 1-.958-.542 2.4 2.4 0 0 1-.542-.958 5.446 5.446 0 0 1-.167-1.542V38.1l-3.75.625v25.169a5.826 5.826 0 0 0 1.458 4.375c.958.958 2.625 1.417 4.917 1.5zM84.8 64.519a5.549 5.549 0 0 1-8.667 0 9.112 9.112 0 0 1-1.583-5.625 9.112 9.112 0 0 1 1.583-5.626 5.166 5.166 0 0 1 4.334-2.084 5.22 5.22 0 0 1 4.333 2.084 9.112 9.112 0 0 1 1.583 5.626 9.282 9.282 0 0 1-1.583 5.625m4.75-10.126a10.761 10.761 0 0 0-2.042-3.5 9.376 9.376 0 0 0-3.125-2.25 10.293 10.293 0 0 0-7.917 0 8.829 8.829 0 0 0-3.125 2.25 10.342 10.342 0 0 0-2.042 3.5 13.074 13.074 0 0 0-.708 4.5 13.78 13.78 0 0 0 .708 4.5 10.559 10.559 0 0 0 2.042 3.459 9.375 9.375 0 0 0 3.125 2.25 10.293 10.293 0 0 0 7.917 0 8.829 8.829 0 0 0 3.125-2.25 10.558 10.558 0 0 0 2.042-3.459 12.756 12.756 0 0 0 .708-4.5 11.877 11.877 0 0 0-.708-4.5m-24.919-6c-.333 1.333-.708 2.709-1.167 4.209s-.917 2.959-1.417 4.417-1 2.875-1.5 4.25-1 2.584-1.458 3.667c-.458-1.083-.958-2.292-1.458-3.667s-1-2.792-1.5-4.25-.958-2.959-1.417-4.417a84.553 84.553 0 0 1-1.167-4.209H49.5a105.347 105.347 0 0 0 3.709 11.293C54.63 63.269 56 66.519 57.3 69.353h3.375c1.333-2.834 2.667-6.084 4.084-9.668a102.3 102.3 0 0 0 3.667-11.293zm-35 20.96h3.75V51.685a4.836 4.836 0 0 1 .667-.125c.292-.042.667-.083 1.042-.125a11.093 11.093 0 0 1 1.25-.083c.417-.042.833-.042 1.25-.042a7.183 7.183 0 0 1 2.5.375 3.441 3.441 0 0 1 1.625 1.25 5.338 5.338 0 0 1 .875 2.209 18.581 18.581 0 0 1 .25 3.292v10.958h3.75V57.6a16.612 16.612 0 0 0-.417-3.917 7.836 7.836 0 0 0-1.373-3.04 6.6 6.6 0 0 0-2.625-1.959A10.854 10.854 0 0 0 38 47.976a28.453 28.453 0 0 0-4.917.375c-1.417.25-2.584.458-3.417.667v20.335zM7.751 59.019c.833-2.334 1.667-4.584 2.5-6.792s1.75-4.292 2.667-6.292c.917 2 1.792 4.125 2.625 6.292.833 2.209 1.708 4.459 2.542 6.792zm18.335 10.334C25 66.394 24 63.644 23.044 61.144s-1.875-4.917-2.75-7.167c-.917-2.25-1.792-4.417-2.667-6.459s-1.833-4.084-2.792-6.126h-3.584c-.958 2-1.875 4.042-2.792 6.126a204.97 204.97 0 0 0-2.667 6.459 187.667 187.667 0 0 0-2.75 7.167A921.429 921.429 0 0 0 0 69.353h4.084l2.542-7.126h12.667c.417 1.208.833 2.417 1.25 3.584s.833 2.375 1.292 3.584h4.25z" transform="translate(0 -22.237)"/><path id="Path_3552" data-name="Path 3552" class="cls-1" d="M302.243 9.73c-2.167-2.375 1.458-4.084 2.042-2.125.292 1.083-1.167 1.708-2.042 2.125" transform="translate(-175.899 -3.951)"/><path id="Path_3553" data-name="Path 3553" class="cls-1" d="M265.744 23.211c-1.458.292-3.125-2.75-1.333-3.042 1.292-.25 1.75 1.708 1.333 3.042" transform="translate(-153.776 -11.765)"/><path id="Path_3555" data-name="Path 3555" class="cls-1" d="M304.552 34.531c1.5-.417 1.75 1.917.75 2.292-1.167.458-2.125-1.875-.75-2.292" transform="translate(-177.249 -20.126)"/><path id="Path_3556" data-name="Path 3556" class="cls-1" d="M277.38 41.831c1.625-.458 1.75 2.417.458 2.459-.958 0-1.708-2.125-.458-2.459" transform="translate(-161.412 -24.384)"/><path id="Path_3557" data-name="Path 3557" class="cls-1" d="M280.347 109.2c.083.542.208 1.083.292 1.583a2.529 2.529 0 0 1-.292-1.583" transform="translate(-163.504 -63.709)"/><path id="Path_3558" data-name="Path 3558" class="cls-1" d="M300.1 112.994a8.057 8.057 0 0 1 2.792-.5c-.959.167-1.875.333-2.792.5" transform="translate(-175.047 -65.627)"/><path id="Path_3559" data-name="Path 3559" class="cls-1" d="M288.767 52.97c-2.084.25-4.667-.083-4.667-1.917.458-.458 3.083 1.125 4.709.583 1.917-.667 1.667-3.5 1.667-3.5l-3.459-1.458a2.4 2.4 0 0 1 .417-1.959c.958-1.458 5.084-1 5.334.167.208 1.083-1.333 2.125-1.75 3.084.667 1.25 1.542 2.25 3.5 1.583.958-.292 1.542-.625 1.583-1.583 0-.625-.208-1.667.75-1.333 2.125 2.792-3.375 5.917-5.459 3.209a3.29 3.29 0 0 1-2.625 3.125" transform="translate(-165.715 -25.564)"/><path id="Path_3560" data-name="Path 3560" class="cls-1" d="M285.5 45.408c3.125.875 8.334 5.084 12.334 4.25 1.208-.25 2.125-2.042 2.709-3.334 1.5-3.292-.167-8.584-4.5-8-1.084.167-4.209.875-4.792.917a6.317 6.317 0 0 1-4.834-.708c1.833 2.917.042 5.792-.917 6.876m-4.125-12.043a25.713 25.713 0 0 1-3-1.333c-.458-.25-1.75-1.125-1.75-1.125a25.87 25.87 0 0 1-3.417 1.167c-3.75.875-6.542 1.292-9.459.792a18.694 18.694 0 0 1-2.584 3c-1.583 1.875-5.584 5.292-5.959 7.459-.375 2.125 1.083 4.334 2.667 4.292 1.458-.042 2.75-.792 4.459-1.5a30.792 30.792 0 0 1 .583-5.709c.125-.75.75-3.459 1.458-3.334.792.083-.25 2.625-.417 3.584a31.134 31.134 0 0 0-.333 4.084l-.042 1.167.125 1.083s.958 7.209 3.792 10.334c2.959 3.292 5.876 2.209 8.292 1.375 3.125-1.083 5.876-7.251 2.917-12.543a7.285 7.285 0 0 0-5-2.417c-2.25.042-3.459 1.167-4.917 2.125-.292.208-2.292 1.792-2.542.667-.125-.583 3.584-2.834 4.459-3.209a7.847 7.847 0 0 1 7.792.958 5.5 5.5 0 0 1 2.084 3.459c2.834-1.667 5.834-4.042 5.292-7.584-.333-2.375-3.334-3.334-5-4.167-.917-.458-3.292-1.25-3.334-1.959-.125-1.5 3.292.792 3.834 1.083 1.834.958 3.292 1.458 4.459 2.625 1.083-1.25-.292-2.834-1.5-3.167a39.528 39.528 0 0 0-2.959-1.208M274.246 8.4c1.917-1.167 5.334-4.334 2.417-6.376C274.413.4 268.537.57 268.5 4.362a13.191 13.191 0 0 0 1.083 3.875 44.318 44.318 0 0 0-8.459 1.708 6.346 6.346 0 0 0-.083-2.125c-1.375-5.25-12.334.083-7.751 4.334.333.292 2.542.917 2.75 1.625.167.5-1.417 2.834-2 4a14.421 14.421 0 0 0-1.125 5.125c-.083 3.834 2.709 5.584 4.625 6.751.708.375 1.292.833 1.834 1.042 10.168 4.417 27.294-2.5 23.919-14.293-1.333-4.709-5-5.709-8.917-7.542zM262.62 47.283c-.042-.292-5.042 2.709-7.042.667a6.874 6.874 0 0 1-1.542-4.75c.25-1.667 2.834-4.209 4.042-5.584a82.253 82.253 0 0 1 2.292-2.5c.458-.5 2.292-2.417 2.292-2.417a19.507 19.507 0 0 1-3.5-1.042 19.446 19.446 0 0 1-4.084-2.375c-5.084-3.917-3.5-10.751-.208-15.168-1.625-.833-3.042-1.625-3.542-3.459-1.458-5.334 10.5-9.668 10.959-2.084a19.134 19.134 0 0 1 6.042-1.292 8.322 8.322 0 0 1-.792-2.542c-.75-6 11.459-6.459 11.418-.625 0 1.625-1.667 3.167-2.959 4.167 3.792 1.708 7.334 3.625 8.459 8.5 1.458 6.542-1.917 10.626-6.751 13.335 2 2.625 10.459 2.417 9.459 7.334 2.75 1.833 7.167-.625 10.751-.375 4.625.333 5.376 7.167 3.417 10.418-2.625 5.792-7.834 3.375-11.793 1.208-1.167-.625-4.375-2.292-4.709-2.417-.167-.083-.792.667-1.667 1.208s-2.125 1.125-2.125 1.208a15.727 15.727 0 0 1 .25 2.584 10.875 10.875 0 0 1-1.083 4.834c-1.333 1.958-2 2.709-3.75 3.542-7.792 3.584-12.376-1.042-13.835-12.376" transform="translate(-146.527)"/><path id="Path_3561" data-name="Path 3561" class="cls-1" d="M291.768 119.066c-.167-2.584.542-5.375 3.459-6.251 3.625-.958 4.459-.542 4.459-.542s.417.208.292.583c-.208.583-3.75.25-5.834 1.875-1.042.833-1.333 3.542-1.292 4.125.083 1 .625 2.042-.375 2.042-.667.125-.625-1.333-.708-1.833" transform="translate(-170.174 -65.449)"/><path id="Path_3562" data-name="Path 3562" class="cls-1" d="M352.288 104.241c-1.167.042-.375-2.792.625-4.417.708-1.125 2.042-3 2.625-2.459.667.5-.875 1.458-1.792 3.209-1.25 2.417-.958 3.709-1.458 3.667" transform="translate(-205.15 -56.75)"/><path id="Path_3563" data-name="Path 3563" class="cls-1" d="M315.878 94.228a.885.885 0 0 1-.583 1.083c-.417.083-.833-.292-.917-.833a.885.885 0 0 1 .583-1.083.9.9 0 0 1 .917.833" transform="translate(-183.366 -54.488)"/></g></svg>