<?xml version="1.0" encoding="utf-8"?>
<!-- Generator: Adobe Illustrator 22.0.1, SVG Export Plug-In . SVG Version: 6.00 Build 0)  -->
<svg version="1.1" id="Layer_1" xmlns="http://www.w3.org/2000/svg" xmlns:xlink="http://www.w3.org/1999/xlink" x="0px" y="0px"
	 viewBox="0 0 1000 187" style="enable-background:new 0 0 1000 187;" xml:space="preserve">
<style type="text/css">
	.st0{fill:#8A8A8A;}
	.st1{fill:#090909;}
	.st2{fill:#FEFEFE;}
	.st3{fill:#FFFFFF;}
	.st4{fill:#A9A9A9;}
	.st5{fill:#060606;}
</style>
<g>
	<path class="st0" d="M8.1,104.5C8,80.6,8,56.8,8,32.9C8.1,21.1,16.2,13,27.9,13C46,13,64,12.8,82.1,13.1c19.9,0.4,38,6.2,53.4,19.2
		c14.6,12.3,23.1,28.2,25.9,47.1c2.4,16.1,1.1,31.8-5.5,46.8c-11.3,25.8-31.4,40.7-58.7,46.2c-6.3,1.3-12.7,1.7-19.1,1.7
		c-14.8-0.1-29.6-0.1-44.3-0.2c-0.3-2,1.4-2.2,2.5-2.9c6.8-4.2,13.2-8.9,18.1-15.4c2-2.5,4.2-2.9,7.1-1.7c5.3,2.1,10.8,3.5,16.5,3.9
		c14.8,1.2,27.2-2.8,36-15.5c0.6-0.8,1.1-1.8,1.9-2.3c8.1-5.8,10.1-15.1,13.7-23.5c0.2-0.4,0.3-0.8,0.4-1.2c0.5-2.6,2.4-5.7,0-7.6
		c-2.2-1.8-4.4,1.1-6.3,2.1c-15.9,8.5-32.6,10.4-50,6.5c-6.1-1.3-6.7-1.9-7.4-7.9c-0.7-5.4-2.2-10.6-2.4-16
		c-0.2-8.1,3.4-11.3,11.3-9.9c9.1,1.6,17.5,4.8,25,10.2c1,0.7,2,1.6,3.1,2.2c2.5,1.3,3.9,0.6,3.6-2.3c-0.3-3.3-1.1-6.4-2.2-9.5
		c-2-5.6-1.3-6.4,4.7-6.5c2,0,4,0,6,0c4.6-0.1,8.4,1.4,10.7,5.7c1.5,2.7,3.9,3.2,6.6,2.7c2.6-0.5,3.9-2.5,4.1-4.8
		c1-8.4,0.5-16.5-5.2-23.4c-3.6-4.3-8.1-6.6-13.6-6.8c-6-0.3-11.9,0.3-17.8,1.3c-7.2,1.2-13.1,0-17.5-6.4c-3.6-5.2-9.5-8-13.6-12.8
		c-0.3-0.3-0.7-0.5-1.1-0.7c-3.6-2-17-0.4-20.1,2.4c-0.6,0.6-1.3,1.2-2.1,1.3c-3.9,0.4-6.9,1.7-7,6.3c0,1.3-1.6,1.5-2.6,1.9
		c-1.6,0.6-3.3,1-4.6,2.1c-2,1.8-3.2,3.9-1.1,6.2c1.9,2.1,1.2,3.5-0.4,5.4c-3.6,4.4-2.5,7.8,3,9.3c2.3,0.6,3.5,2,3.7,4.1
		c1.1,8.4,3.4,16.7,3,25.3c-0.4,9-4.2,12.8-13.2,12.9C20,108.8,13.7,107.9,8.1,104.5z"/>
	<path d="M8.1,104.5c3,0.3,5.8,1.3,8.6,2.1c4.2,1.2,8.4,1.3,12.7,1c4.4-0.3,7-2.7,8.4-6.7C39,97,38.8,93,38.3,89.1
		c-0.7-6.3-1.9-12.6-2.8-18.9c-0.2-1.6-0.7-2.6-2.7-2.5c-2.8,0.1-5-1.2-6-3.9c-1.1-2.8-0.1-5.3,2-7.4c0.8-0.8,1.6-1.5,2.4-2.2
		c-0.2-0.7-0.8-0.9-1.2-1.2c-2.7-2.2-3-4.7-0.8-7.3c1.2-1.5,2.8-2.4,4.6-2.9c1.4-0.4,2.7-0.7,4.1-1.1c-0.3-5.6,1-7.2,6.5-7.5
		c1.1-0.1,2.1,0.1,2.7-1.4c1.4-3.1,4.3-3.5,7.2-3c2.1,0.3,3.9,0.5,6.1-0.4c4.2-1.7,8.6-0.2,11.2,3.6c1,1.5,2.1,2.5,3.6,3.4
		c3.1,1.6,5.2,4.4,7.5,6.9c7.1,8,7.5,8.1,18.1,6.6c4.5-0.6,9-1.2,13.5-1.5c13-0.8,21.8,8.1,23.7,19.8c0.7,4.5,0.6,9.1-0.4,13.6
		c-0.6,2.8-2,4.1-4.9,4.5c-2.7,0.4-5.8,0.6-7.1-2.4c-2.3-5.2-6.3-6.4-11.4-6.2c-3.2,0.1-6.5,0-10.1,0c1.3,4.6,3.3,8.6,3.8,12.9
		c0.3,2.2,1.3,4.9-0.9,6.3c-2.4,1.5-4.2-0.9-5.9-2.2c-7.9-6.2-16.9-9.7-26.8-11.3c-1.3-0.2-2.5-0.3-3.8-0.1
		c-3.5,0.6-5.3,2.3-5.6,5.9c-0.2,2.3-0.1,4.5,0.4,6.8c1,4.9,1.9,9.8,2.2,14.7c0.1,2.2,0.9,3.2,3.1,3.8c17,4.5,33.5,3.6,49.4-4.1
		c2.9-1.4,5.7-3.1,8.7-4.6c2.2-1.1,2.7-0.9,3.2,1.6c0.9,4.4-0.1,8.5-2.2,12.3c-1,1.8-1.8,3.5-2.2,5.5c-1.2,5.7-4.2,10.2-8.7,13.8
		c-1.2,1-2.4,2-3.2,3.3c-8.6,13.4-21.4,17.9-36.6,16.9c-6.6-0.4-12.9-2.1-19-4.6c-1.5-0.6-2.5-0.7-3.6,0.7
		c-6.1,7.8-14,13.6-22.4,18.6c-5.4,0.3-10.8,1-15.7-2.1c1.4-2.5,4-3,6.3-4.1c11.5-5.7,21.6-12.9,28.5-24.2c5.3-8.8,7.3-18.4,7-28.5
		c-0.2-10.4-3.2-20.1-6.7-29.7c-3.1-8.6-6.6-17.3-6.4-26.7c0.2-10.4,4.8-17,14.7-20.6c0.9-0.3,2-0.4,2.7-1.9
		c-2.4,0.7-4.5,1.2-6.7,0.6c-0.4-0.1-1.1,0.1-1.1,0.5c-0.7,4.6-4.2,2.4-6.6,2.7c-2.1,0.2-4.7-0.3-3.6,3.4c0.6,2.1-1.1,2.3-2.5,2.5
		c-2,0.3-4,0.4-5.8,1.3c-0.9,0.4-2,0.8-1.9,2c0.1,1,1.1,1.1,1.9,1.4c1.2,0.4,2.9,0.1,3.2,1.6c0.3,1.7-1.4,2.2-2.5,3.1
		c-0.4,0.3-1,0.6-1.4,1c-1.4,1.5-4.4,2.8-3.3,4.9c1.2,2.4,3.5-0.1,5.1-0.7c2.2-0.8,3.1,0.3,3.1,2.1c0.2,11.9,4.1,23.5,3.7,35.5
		c-0.4,12.8-8.3,19.7-21.2,18.1c-3.9-0.5-7.9-0.5-11.8-1.6c-1.6-0.4-3.4-0.6-4.4-2.2C7.7,109.5,8,107,8.1,104.5z"/>
	<path d="M455,53.7c-10.1-1-20.2-0.3-30.2-0.4c-8-0.1-11.7,3.7-11.7,11.8c0,9.5,0,19,0,28.5c0,9.9-0.1,19.9,0,29.8
		c0.1,6.6,3.8,10.3,10.3,10.4c9.1,0.1,18.2,0.2,27.3-0.1c23.4-0.6,39.8-17,40.1-39.9C491.2,72.2,476.7,55.9,455,53.7z M471.7,95.3
		c-0.6,11.3-8.7,19.3-20.5,19.8c-5.4,0.3-10.8,0-16.2,0.1c-2,0.1-2.3-0.9-2.3-2.6c0.1-6.4,0-12.8,0-19.2c0-6.2,0.1-12.5,0-18.7
		c-0.1-2.2,0.6-3,2.9-2.9c5.9,0.3,11.9-0.5,17.9,0.4C465.9,74.2,472.4,82.5,471.7,95.3z"/>
	<path d="M307.4,91.6c-0.6-20.2-14.9-35.7-35.1-37.9c-10.3-1.1-20.7-0.4-31.1-0.5c-7.7-0.1-11.4,3.8-11.5,11.5c0,9.7,0,19.3,0,29
		c0,9.9-0.1,19.9,0,29.8c0.1,6.3,3.8,10.1,10.1,10.2c9.2,0.1,18.5,0.2,27.7-0.1C291.7,133.1,308.1,115.6,307.4,91.6z M268.7,115
		c-5.8,0.5-11.6,0.1-17.5,0.2c-1.9,0-2-1-2-2.5c0-6.5,0-13.1,0-19.6c0-6,0-11.9,0-17.9c0-3.3,0.1-3.4,3.1-3.4
		c5.8,0.1,11.7-0.5,17.4,0.4c12.2,1.8,18.7,9.8,18.4,22C288.1,105.8,280.5,114,268.7,115z"/>
	<path d="M543.5,52.6c-22.4-0.7-41,16.6-42,38.3c-1,22.8,15.9,42.8,39.9,43.8c22.8,0.9,42-17.2,42.6-40.2
		C584.6,70,566.4,52.9,543.5,52.6z M542.6,116.1c-12.6-0.1-21.6-9.4-21.6-22.5c0-12.3,9.6-21.9,21.8-21.9c12.2,0,21.8,9.8,21.8,22
		C564.6,107.1,555.6,116.2,542.6,116.1z"/>
	<path d="M358.5,52.6c-22.7-0.1-40.6,17.8-40.6,40.4c0,23.1,18.2,41.7,41.1,41.7c22.7,0.1,41.2-18.4,41.2-41.1
		C400.3,69.8,382.8,52.6,358.5,52.6z M359.1,116.1c-12.7,0-22-9.6-21.9-22.6c0.1-12.1,9.9-21.8,22-21.8c12.1,0,21.8,9.7,21.8,21.9
		C381,106.9,372,116.2,359.1,116.1z"/>
	<path d="M790.3,72.8c-1.9-1-3.3-0.6-4.7-0.6c-10.8,0-21.6-0.1-32.4,0c-7.2,0.1-11.2-6.9-8.5-13.1c1.3-3.1,3.7-5,7.1-5.3
		c1.3-0.1,2.6-0.1,3.8-0.1c15.4,0,30.7,0,46.1,0c1.3,0,2.6,0,3.8,0.1c7,0.4,10.8,4.7,10.3,11.8c-0.3,5.1-2.8,9.2-6.5,12.5
		c-6.3,5.7-12.7,11.4-19,17.1c-6.5,5.9-13.1,11.8-19.7,17.7c-0.7,0.6-1.4,1.3-2.8,2.6c2.3,0,3.7,0,5,0c10.8,0,21.6,0,32.4,0
		c0.9,0,1.7,0,2.6,0c6.5,0.2,9.8,3.4,9.7,9.3c-0.1,6-3.7,9.8-9.9,9.9c-13.1,0.1-26.2,0-39.2,0c-4.4,0-8.8,0-13.2,0
		c-10.6-0.1-15.6-8-11.2-17.7c1.3-2.9,3.3-5.3,5.6-7.4c7.9-7.2,15.8-14.3,23.7-21.5C779,83,784.5,78.1,790.3,72.8z"/>
	<path d="M854,115.4c1.4,0,2.7,0,4.1,0c11.5,0,23,0,34.5,0c6.9,0,10.5,4,9.8,10.8c-0.4,4.4-3.5,7.6-7.9,8.3
		c-1.3,0.2-2.6,0.1-3.8,0.1c-16.5,0-33,0-49.5,0c-0.3,0-0.6,0-0.9,0c-11.1-0.1-16.2-8.8-10.9-18.7c2-3.7,5-6.5,8.1-9.3
		c11.4-10.3,22.8-20.6,34.2-30.8c1-0.9,2.3-1.7,3-3c-0.9-1.1-2.1-0.6-3.1-0.6c-11.1,0-22.2,0-33.2,0c-6.5,0-10.1-4-9.5-10.3
		c0.4-4.4,3.5-7.7,7.9-8.2c1.1-0.1,2.3-0.1,3.4-0.1c15.6,0,31.3,0,46.9,0c0.7,0,1.4,0,2.1,0c8.7-0.2,13,5.4,11.1,14.8
		c-0.8,3.7-3,6.7-5.8,9.3c-4.6,4.2-9.2,8.4-13.9,12.6c-9,8.1-18,16.1-26.9,24.2C853.8,114.8,853.9,115.1,854,115.4z"/>
	<path d="M691.7,76.2c-1.9-10.7-8-18-18.4-21.4c-3.4-1.1-6.9-1.5-10.5-1.5c-10.1,0-20.2,0-30.3,0c-7.7,0-11,3.2-11,10.8
		c-0.1,9.8,0,19.6,0,29.4v18.7c0,4.4-0.1,8.8,0.1,13.2c0.1,4.3,2.5,7.4,6.4,8.6c7.2,2.3,13.3-3,12.9-9.2c-0.3-3.8,0-7.7-0.1-11.5
		c-0.1-2.1,0.4-3.3,2.8-3c0.9,0.1,1.7,0,2.6,0c7-0.1,13.9,0.2,20.9-0.2c11.7-0.6,20.9-8.4,24.1-19.6C692.3,85.8,692.5,81,691.7,76.2
		z M663.6,92.1c-6.8,0.2-13.6,0-20.4,0.1c-1.9,0-2.5-0.7-2.4-2.5c0.1-5.2,0.1-10.5,0-15.7c0-1.6,0.5-2.3,2.2-2.2
		c3.5,0.1,7.1,0,10.6,0c3.3,0,6.5-0.1,9.8,0c6,0.1,9.8,3.9,9.9,9.9C673.4,87.9,669.7,91.9,663.6,92.1z"/>
	<path class="st0" d="M8.2,112c6.3,1.9,12.8,2.7,19.3,2.9c9.8,0.4,16.1-5.3,16.9-15.3c0.5-5.8-0.1-11.6-1.1-17.4
		c-1.2-7.3-2.6-14.5-2.2-22.4c-1.9,1.1-3.4,2.1-4.9,2.9c-1.5,0.7-3.1,0.9-4.2-0.6c-1-1.4-0.1-2.8,0.8-3.9c2-2.6,4.7-4.4,7.4-6.5
		c-1.3-0.1-2.6-0.2-4-0.4c-1.2-0.2-2.3-0.7-2.6-1.9c-0.4-1.3,0.7-2.1,1.6-2.7c1.9-1.3,4.1-1.9,6.4-2.2c1.3-0.1,2.5-0.1,3.8-0.2
		c0.2-0.5-0.1-0.8-0.4-1.1c-2.1-2.7-1.5-4.3,1.8-4.8c2.5-0.4,5.1,0.1,8,0.9c-0.3-1.4-2-2.8-0.5-3.8c2.4-1.5,4.6-0.2,6.6,1.3
		c0.8-1-0.1-3.3,2.1-3.1c2.1,0.2,2.9,1.9,3.4,3.7c-1.1,0.9-2.2,0.9-3.3,1.1c-8.6,2-14.4,8.5-15.4,17.2c-0.4,3.6-0.1,7,0.7,10.6
		c2.1,8.9,5.4,17.3,8.3,25.9c3,9.1,4.7,18.4,4.2,28c-0.8,15.2-7.4,27.5-18.8,37.3c-7.2,6.2-15.4,10.6-24.1,14.2
		c-6.5-3.2-9.6-8.7-9.9-15.6c-0.3-7,0-14.1,0.1-21.1c2.5-2.4,6.2-1.6,9.2-3.5c-3.1-1.7-6.5,0.5-9.3-1.4C8.1,124,7.8,118,8.2,112z"/>
	<path d="M990.6,119.1c-3.9-8.4-7.7-16.8-11.5-25.1c-4.8-10.4-9.6-20.9-14.4-31.3c-2.7-5.8-6.8-9.1-13.5-9.1
		c-6.9,0-11.2,3.2-13.9,9.2c-0.4,0.8-0.7,1.5-1.1,2.3c-8.1,17.5-16.1,35-24.1,52.6c-0.8,1.8-1.7,3.6-2,5.6c-0.7,4.7,1.1,8,5.5,9.8
		c4.7,1.9,9.2,0.4,11.6-4.1c1.9-3.5,3.6-7.1,5.1-10.7c0.8-1.9,1.8-2.5,3.9-1.9c5.1,1.5,10.3,2,14.3,2.1c6.3,0.1,11.2-0.6,16-2.1
		c2.1-0.6,3-0.1,3.8,1.9c1.5,3.7,3.2,7.3,5,10.8c1.9,3.7,5.9,5.5,9.6,4.6c4.1-0.9,7.1-4.6,7.3-8.9
		C992.1,122.8,991.4,121,990.6,119.1z M939.3,99.6c3.7-8.3,7.4-16.4,11.3-25.1c3.9,8.7,7.5,16.7,11.3,25.1
		C954.2,101.6,947,101.5,939.3,99.6z"/>
	<path d="M727.1,93.7c0,10.2-0.1,20.4,0,30.6c0.1,6.8-5,10.3-10,10.3c-5.8-0.1-10-4-10-9.8c-0.1-20.9-0.1-41.7,0-62.6
		c0-5.6,3.8-9.4,9.2-9.7c5.6-0.3,10,3.3,10.7,8.8c0.2,1.3,0.1,2.5,0.1,3.8C727.1,74.7,727.1,84.2,727.1,93.7z"/>
	<path class="st1" d="M8.1,130.1c3.8-0.6,7.6-0.3,11.3-0.2c0.3,2-0.2,3.1-2,3.4c-3.1,0.6-6.1,1.2-9.2,1.8
		C7.8,133.4,8,131.7,8.1,130.1z"/>
	<path class="st2" d="M93.9,80.4c-7.5-2.8-15.4-3.9-23-6c-3.6-1-7.1-2.1-10.3-3.8c-6-3.2-9.3-8.2-9-15.2c0.3-7.2,3.8-12.3,10.4-15
		c1.3,0.6,0,1.6,0.7,2.4c0.4,0.3,0.7-0.1,1-0.4c1.9-2.2,4.2-3.4,7.1-3.1c1.5,0.1,3,0.6,3.6,2c1.7,3.8,4.9,6.1,7.6,9.1
		c0.7,0.8,1.9,1.3,0.6,2.7c-0.6,0.6,0.4,0.8,0.8,0.9c1.9,0.7,3.9,0.8,5.9,0.8c4,0,7.9,0,12.2,0c-2.7,3.9-5.1,7.9-6.1,12.4
		c-0.3,1.3-1.5,1.6-2.7,1.7c-7.3,0.5-14.5,0.6-21.5-1.6c-3.3-1-6.3-2.7-8.4-5.6c-1.8-2.5-1.5-3.2,1.5-3.9c0.4-0.1,0.8-0.2,1.6-0.3
		c-2.1-2.1-4.2-1.6-6.2-0.8c-1.9,0.8-2.7,2.4-2.5,4.5c0.1,1.1,0.1,2.5,1.9,2.1c0.8-0.2,0.9,0.5,1.3,0.9c4.5,5.2,10.6,7.4,16.9,9.2
		c4.9,1.4,10,2,14.6,4.3c1,0.5,2,1.1,2.9,1.7C94.9,80.3,94.7,80.7,93.9,80.4z"/>
	<path class="st3" d="M68,126.2c0.2-1.5,0.3-3.1,0.5-4.9c9.9,2.2,19.7,3.3,29.6,2c9.8-1.2,19-4.4,28-9.8c-0.3,2.3-1.5,3.6-2.7,4.8
		c-3.3,3.6-7.5,6-12,7.8c-4.1,1.7-8.3,2.8-12.7,3.6c-1.3,0.2-2.9-0.1-3.7,1.5c3.6,1.5,4.4,1.3,24.1-5.4c-1.3,4.4-4.4,6.9-8,8.9
		c-4.8,2.6-10.1,3.5-15.5,4.2c-1.2,0.1-2.6-0.2-3.5,1.6c5.6,1,10.7-0.6,16.6-1.5c-6.4,8-14.7,10.3-23.6,11.3
		c-0.4,0.1-0.8,0.2-1.2,0.2c-1.2-0.2-2.9,0.7-3.6-0.6c-0.8-1.4,0.5-2.7,1.2-3.8c2-2.9,4.1-5.7,5.4-9.1c1.5-4.1,1.4-4.2-2.7-4.7
		c-4-0.6-8.1-0.9-12.2-1.7c-1.7-0.3-3.4-0.5-4.4-2.1c0-0.5,0-1,0.1-1.4C67.9,126.9,68,126.6,68,126.2z"/>
	<path class="st0" d="M133.7,74.9c0,0.4,0.1,1.5-1,2c-1.3,0.6-2.2-0.2-2.9-1.2c-3.3-5.4-8.6-6.5-14.3-6.6c-5-0.1-9.9,0.1-14.9,0.1
		c-2.5,0-2.7-0.4-2-2.8c0.2-0.7,0.4-1.3,0.7-2c2.3-6.9,6.4-11.1,14.4-11.2c7.5-0.1,12.8,2.7,16.5,9C132.3,65.9,133.4,70,133.7,74.9z
		"/>
	<path class="st0" d="M67.7,128.7c7.2,1.7,14.4,2.5,22.1,2.9c-1.3,7.2-5,12.8-9.8,18.3c1.9,1,3.6,0.2,5.1,0.6
		c-7.5,1.2-14.5-0.6-21.5-3.1c-1.6-0.6-1.7-1.5-1-3C65.2,139.4,66.5,134.1,67.7,128.7z"/>
	<path class="st4" d="M93.9,80.4c0.3-0.3,0.6-0.6,0.8-0.9c1.9,0.6,3.3,1.9,4.1,4.1C97.1,82.5,95.5,81.5,93.9,80.4z"/>
	<path class="st0" d="M68,126.2c0.2,0.4,0.3,0.8-0.2,1.1C67.6,126.9,67.5,126.5,68,126.2z"/>
	<path class="st5" d="M68,44.7c3-1.3,4.8,0,6.1,1.9c1.3,1.9,2.2,4,1.2,6.4c-0.4,0.9-1.1,1.2-2,1.2c-1.8,0-4-1.6-4.6-3.3
		c-0.1-0.4-0.2-0.7,0-1.1C70,47,70,47,68,44.7z"/>
</g>
</svg>
