<?xml version="1.0" encoding="utf-8"?>
<!-- Generator: Adobe Illustrator 22.0.1, SVG Export Plug-In . SVG Version: 6.00 Build 0)  -->
<svg version="1.1" id="svg5056" xmlns:svg="http://www.w3.org/2000/svg"
	 xmlns="http://www.w3.org/2000/svg" xmlns:xlink="http://www.w3.org/1999/xlink" x="0px" y="0px" viewBox="0 0 1024 459"
	 style="enable-background:new 0 0 1024 459;" xml:space="preserve">
<style type="text/css">
	.st0{fill:#FFFFFF;}
	.st1{fill:#626262;}
</style>
<path id="path4069" class="st0" d="M512.1,13.1c166.1,0,295.7,34.5,386.2,65.3c67.3,22.9,57.5,56.2,52.4,73.9
	c-4.7,16.3-10.1,23.6,9.8,29.1c16.5,4.5,14.4,3.7,23.5,6.3c18,5.2,35.2,9.5,23,52.1c-3.6,12.7-42.1,144.5-47.9,161.7
	c-12.2,36.1-9.1,44.3-61.7,44.3c-8,0-762.7,0-770.7,0c-52.6,0-49.4-8.2-61.7-44.3c-5.8-17.2-44.3-149-47.9-161.7
	c-12.1-42.5,5-46.9,23-52.1c9.1-2.6,7-1.8,23.5-6.3c19.8-5.4,14.4-12.8,9.8-29.1c-5.1-17.8-14.9-51.1,52.4-73.9
	c90.5-30.8,220.1-65.3,386.2-65.3L512.1,13.1"/>
<path id="path4073" class="st1" d="M890.8,414.1c23.2,0,31.8-3.7,37.8-20.3c5.4-14.8,37.8-129.1,42.2-144.4
	c6.4-22.2,3.9-31-17.4-36.3c-8.3-2.1-24-5.9-33.8-8.3c-14.5-3.6-13-19.5-10.1-27.9c1.9-5.4,7.5-25.4,10.5-35.1
	c5-15.5-2.5-20.3-11.7-24c-12.2-4.9-158.5-68.6-396.4-71.9h-0.1c-237.9,3.2-384.2,67-396.4,71.9c-9.2,3.6-16.7,8.4-11.7,24
	c3.1,9.7,8.7,29.7,10.5,35.1c2.9,8.4,4.4,24.2-10.1,27.9c-10.4,2.6-25.5,6.3-33.8,8.3c-21.3,5.3-23.8,14.1-17.4,36.3
	c4.5,15.4,36.8,129.7,42.2,144.4c6.1,16.6,14.6,20.3,37.8,20.3C144.6,414.1,879.3,414.1,890.8,414.1"/>
<path id="path4097" class="st0" d="M763.6,234.5c3.2-1.3,12.6-3.2,16.3-3.2c0,0,24-2.1,31.7,1.6c6.1,2.9-16.4,26.2-39.9,52.4
	c-13.2,14.7-26.9,30.3-35.5,43.6c-4.2,6.6-1.9,14.5,8.3,15.8c30.6,4.1,87.2,1.7,87.2,1.7c22-1.1,30.1-2.2,41.9-18.2
	c0,0,39.4-45.4,33.2-68.9c-4.1-15.8-29.6-26.2-37.3-12.2c-2.8,5.1-11.9,16.3-6.6,17.4c20.2,4.3,24.8,15.9,20.7,23.3
	c-6.8,12.3-18.6,11.8-25,13.1c-6.4,1.3-51.1,3.4-62,0.9c-4.5-1.1,0.2-11.1,6.6-19.2c22.8-28.9,65.2-81.4,65-85.2
	c-0.2-3.1,1.1-7.6-8.3-8.7c-33.3-3.5-68.9-1.6-68.9-1.6c-7,0-13.4,2.8-18.9,9.1c-5.7,6.6-15.1,21.3-16.7,35.5
	C755.6,231.6,754.2,238.3,763.6,234.5 M555.9,168.5c6.2,4,29.9-2.6,37.3-9c1.9-1.6,6-6.6,7.4-10.8c3.2-9.1,4.3-13,3.6-19.1
	c-0.7-6.7-5.1-8-8.8-8.7c-6.8-1.2-31.4,4-37.7,15.2C547.1,155,551.5,166.5,555.9,168.5 M528.3,201.1c-5.9,3.7-6.2,9.4-2.6,12.4
	c4.4,3.7,5.7,7.6,3.2,16.5c-4.4,15.6-22.1,67.2-25.9,81.2c-3.4,12.5-8.6,32,2.6,35.7c9.3,5.2,45-7.2,52.6-12c8-5.1,7.9-8.1,5.9-11.2
	c-1.8-2.7-6.1-6.6-6.7-7.8c-2.7-5.3-1-12.9,1.8-25.3l26.2-82.1c1.9-7.1,4.6-16.8-1.7-20.5C574.7,182.6,538.5,194.8,528.3,201.1
	 M744,219.5c-1.2,6-23.7,70.3-24.8,74.3c-0.9,3.4-6.3,21.2,0,26c1.2,0.9,3.7,2.1,5,3c3.9,2.9,5.9,8-1.8,14
	c-8,6.1-42.1,14.1-52.8,9.6c-11.2-3.7-7.2-25.3-4-36.6c1.7-6.1,6.7-25.3,13.1-43.2c5.6-15.6,9.7-31.3,10.5-35.7
	c1.4-8.2,0-13.7-8.5-13.5c-9.5,1.9-18.8,10.2-25.9,28.6c-8.8,22.8-14.8,48.4-14.9,48.7c-6.7,25.5-5.1,29.7-6.8,36.5
	c-1.5,6-4,5.9-8.9,8.2c-3.4,1.6-27.4,12.4-39,6.5c-7.8-5.2-1.2-26.1,1.9-37.3c2.8-10,21.7-68.5,23.3-80.8c1.3-9.6-0.4-8.9-6.3-14.5
	c-6.5-6.1,2-11.2,3.7-12.3c10-6.3,49.4-17.8,54.8-14c7.2,5-0.7,16.8,5.7,16.8c9.9,0,29.6-15.9,49.1-18.1
	C751.9,181.9,746.4,207.7,744,219.5 M459.5,242c8.3-7.5,18.9-34.5,12-37.4c-13.6-5.6-28.9,39.8-26.6,42.2
	C446.2,249.3,454,246.7,459.5,242z M446.2,312.4c7.5,2.7,17.4,1.9,25.7-0.6c7.5-2.3,8.5-2.7,13.9-4.2c0,0,11.2,0.7,4.3,11.5
	c-8.2,13-15.2,15.4-27.9,21.5c-12.5,6-29,8.3-43,7.4c-30.6-1.2-35.7-24.5-34-50c1.3-18.9,6.8-37,8.3-41.2
	c6.5-17.4,12.8-33.7,26.3-44.7c29.8-24.5,69.4-26.2,73.1-26.3c9.4-0.3,17.3,3.7,20.5,12.3c5.1,18.4-5.4,56.1-74.4,68.8
	C439.1,266.9,424.4,304.6,446.2,312.4 M242.5,323.1c18.2-10.8,26.7-22.4,35.8-46.5c3.5-9.2,6.5-22.2,9.5-28.7
	c1.8-3.9,3.8-3.6,6.4-4.2c3.7-0.8,24.5-0.2,27.1,0.2c2.6,0.3,4.2,2.2,3.4,5.4c-3.9,16-11.9,43.3-15.7,61.2
	c-2.6,12.3-6.9,31.6,3.1,36.1c17.9,8.1,54.5-8.3,57.7-14.1c2-3.7,5.5-7.4-3.5-12.2c-7.3-3.9-4-17.6-2.4-28.5c0,0,8.2-38.5,29-101.3
	c0-0.1,4.2-12.4,9.5-25.5C408.5,149.7,416,133,416,133c2.7-4-0.2-6.7-0.2-6.7c-1.6-3.7-37.3-2.4-37.3-2.4
	c-15.9-0.2-21.3,14.4-27.4,33.5c0,0-16.7,59.6-18.1,61.2c-2.2,2.4-3.2,3.4-7.2,3.8c-8.5,1-20.5,1.5-27.1,0.3
	c-4.2-0.3-2.7-4.7-2.6-7.4c-0.2,0,21.3-74.8,20-85.8c-0.8-7.1-6.8-8-14.1-8c-41.2-2.1-83.2,3.4-97.6,8.3
	c-11.7,4.7-28.2,12.7-35.3,26.6c-3.5,6.8-10.7,20-2.1,52.4c2.1,7.9,7.8,17.9,9,19.1c10.7,11.2,35.9-2.7,35.4-2.4
	c3-1.8,4.1-6,1.8-10.7c-3.3-6.7-8.5-20.1-9.6-30.9c-4.3-41.8,26.2-45.7,31.9-46.5c10.5-1.5,12.3-0.7,17.8,0.2c4,0.6,7.5,1.5,9.1,4.5
	c3.4,6.1-2.8,29-5.3,40.1c-3,13.5-16.3,62.7-24.8,85.6c-9.9,26.6-18.6,53.5-35.1,59.6c-5.6,2.1-8.4,1.9-14.6,0.4
	c-5.6-1.3-12.8-7.5-16.5-11.3c-9.9-10.3-14.1-25.7-15.4-42.9c-1.5-19.6,3.7-31.3-3.7-32.2c-9.9-0.5-28.8,7.9-37,15.3
	c-4.6,4.1-8.6,8.9-4.1,29.1C113.9,321.3,136.3,385.9,242.5,323.1"/>
</svg>
