<?xml version="1.0" encoding="utf-8"?>
<!-- Generator: Adobe Illustrator 22.0.1, SVG Export Plug-In . SVG Version: 6.00 Build 0)  -->
<svg version="1.1" id="Слой_1" xmlns="http://www.w3.org/2000/svg" xmlns:xlink="http://www.w3.org/1999/xlink" x="0px" y="0px"
	 viewBox="0 0 2500 1250" style="enable-background:new 0 0 2500 1250;" xml:space="preserve">
<style type="text/css">
	.st0{fill:#333333;stroke:#FFFFFF;}
	.st1{fill:#C3C3C3;}
</style>
<path class="st0" d="M2500,1.3H0v1247.5h2500V1.3z"/>
<path class="st1" d="M2206.1,727.3c-0.6,4.4-2.2,16.1-17.5,17.7h-133.8c-15.2-1.5-18-13.2-18.6-17.7V520.7
	c0.6-4.5,2.7-13.9,17.9-15.5h134.6c15.2,1.5,16.9,11,17.4,15.5V727.3z M2252.4,427.4h-262.6c-39.5,3.2-72.8,23.2-77.2,68v255.8
	c4.4,44.8,37.8,68.5,77.2,71.7h262.6c39.5-3.2,72.8-26.9,77.2-71.7V495.3C2325.2,450.6,2291.9,430.5,2252.4,427.4L2252.4,427.4z
	 M1189.8,505.2h-117.4v-77.8h358.3v77.8h-117.4v317.6h-123.6L1189.8,505.2z M1035.3,505.2v-77.8H714v395.4l325.6-0.1l0.1-77.8H837.9
	l0-84.7h197.4v-77.7H837.9v-77.4L1035.3,505.2z M1752,566.5c0,8.6-2.1,16.1-17.5,16.1h-143.2v-77.6h143.3
	c17.4,0,17.3,11.4,17.3,18.5L1752,566.5z M1786.2,669.1c38.6-3.1,77-29.3,77-72.4V499c-4.5-44.6-37.9-68.6-77.5-71.8h-317.9l0,395.5
	h123.6V669.1h49.2l80.3,153.7H1863l-95.6-153.7H1786.2z M458.2,822.8L541,574.4v248.4h123.6V427.4H497.8l-80.3,197.7l-80.3-197.7
	H170.3v395.4h123.6V574.4l83.4,248.4H458.2z"/>
</svg>
