<?xml version="1.0" encoding="utf-8"?>
<!-- Generator: Adobe Illustrator 22.0.1, SVG Export Plug-In . SVG Version: 6.00 Build 0)  -->
<svg version="1.1" id="layer" xmlns="http://www.w3.org/2000/svg" xmlns:xlink="http://www.w3.org/1999/xlink" x="0px" y="0px"
	 viewBox="0 0 652 652" style="enable-background:new 0 0 652 652;" xml:space="preserve">
<style type="text/css">
	.st0{fill:#686868;}
	.st1{fill:#444444;}
</style>
<g>
	<path d="M343.7,356.1c0,18.3-9.2,28.3-26,28.3c-6.7,0-11.7-1.9-15.3-5.8h-0.3V403c0,2.2-1.2,3.4-3.4,3.4h-9.4
		c-2.2,0-3.4-1.2-3.4-3.4v-67.8c0-18.3,10.3-28.3,28.9-28.3s29,10,29,28.3v20.9H343.7z M327.5,336.5c0-10.4-4.3-15.6-12.8-15.6
		s-12.6,5.2-12.6,15.6v18.4c0,10.3,4.2,15.5,12.6,15.5c8.5,0,12.8-5.2,12.8-15.5V336.5z"/>
	<path d="M362.2,277.1c5.5,0,9.7,4,9.7,9.5c0,5.8-3.9,9.7-9.7,9.7c-5.8,0-9.7-3.9-9.7-9.7C352.6,281.1,356.7,277.1,362.2,277.1
		 M357.5,382.6c-2.2,0-3.4-1.2-3.4-3.4v-67.1c0-2.2,1.2-3.4,3.4-3.4h9.4c2.2,0,3.4,1.2,3.4,3.4v67.1c0,2.2-1.2,3.4-3.4,3.4H357.5z"
		/>
	<path d="M438.1,381.1c0,16.8-10.9,27.1-29.1,27.1c-9.8,0-17.8-2.5-24.2-7.7c-1.6-1.3-1.8-2.8-0.6-4.8l3.9-6
		c1.2-2.1,2.8-2.4,4.8-0.7c4.6,3.4,9.8,5.2,15.3,5.2c9.2,0,13.8-4.6,13.8-13.8v-4.6h-0.3c-3.6,3.9-8.6,5.8-15.3,5.8
		c-16.8,0-26-10-26-28.3v-18.2c0-18.3,10.4-28.3,29-28.3s28.8,10,28.8,28.3L438.1,381.1L438.1,381.1z M421.9,352.1v-15.6
		c0-10.4-4.2-15.6-12.6-15.6s-12.8,5.2-12.8,15.6v15.6c0,10.3,4.3,15.5,12.8,15.5S421.9,362.3,421.9,352.1"/>
	<path d="M505.1,357c0,17.7-9.8,27.4-27.8,27.4s-28-9.7-28-27.4v-44.9c0-2.2,1.2-3.4,3.4-3.4h9.4c2.2,0,3.4,1.2,3.4,3.4v44.2
		c0,9.4,4,14.1,11.9,14.1s11.9-4.8,11.9-14.1v-44.2c0-2.2,1.2-3.4,3.4-3.4h8.9c2.2,0,3.4,1.2,3.4,3.4V357H505.1z"/>
	<path d="M515,374.1c0-5.8,4.3-10.1,10.3-10.1c5.8,0,10.3,4.3,10.3,10.1c0,6-4.5,10.3-10.3,10.3C519.3,384.3,515,380,515,374.1"/>
	<path d="M550.3,382.6c-2.2,0-3.4-1.2-3.4-3.4v-97.3c0-2.2,1.2-3.4,3.4-3.4h9.4c2.2,0,3.4,1.2,3.4,3.4v97.3c0,2.2-1.2,3.4-3.4,3.4
		H550.3z"/>
	<path d="M620,377.7c0.7,2.1,0.1,3.6-1.8,4.5c-3.3,1.5-7.4,2.2-12.5,2.2c-16.7,0-25-8.3-25-25.1v-36.6h-6.2c-2.2,0-3.4-1.2-3.4-3.4
		v-7.1c0-2.2,1.2-3.4,3.4-3.4h6.2v-15.9c0-2.2,1.2-3.4,3.4-3.4h9.4c2.2,0,3.4,1.2,3.4,3.4v15.9h18c2.2,0,3.4,1.2,3.4,3.4v7.1
		c0,2.2-1.2,3.4-3.4,3.4h-18v36.6c0,7.4,3.6,11.2,10.7,11.2c1.9,0,4-0.4,6.1-1.2c2.2-0.8,3.7-0.2,4.3,1.9L620,377.7z"/>
	<path d="M242.9,237.8c-0.8-6.9-7.1-11.8-13.9-11c0,0,0,0-0.1,0h-0.1l-24.8,3.1h-0.1c-6.2,0.8-10.8,6-11,12.1l0,0
		c-1.4,30-24.3,55.6-55.1,59.4l0,0l0,0l0,0c-30.8,3.8-59.2-15.5-67.8-44.3l0,0c-1.7-5.9-7.4-9.8-13.6-9h-0.1l-24.9,3.1
		c0,0,0,0-0.1,0c0,0,0,0-0.1,0c-6.9,0.9-11.7,7.1-10.9,14c0.1,0.5,0.2,1,0.3,1.5c0,0,0,0,0,0.1s0.1,0.3,0.1,0.4
		c14,54,66.3,90.8,123.2,83.8l0,0l0,0c56.9-7,98.8-55.4,99.1-111.2c0-0.1,0-0.3,0-0.4v-0.1C243,238.8,243,238.3,242.9,237.8"/>
	<path class="st0" d="M221.2,383.1c0,17.7-14.3,32-32,32s-32-14.3-32-32s14.3-32,32-32S221.2,365.4,221.2,383.1"/>
	<path class="st1" d="M100,376c0,13.8-11.2,25-25,25s-25.1-11.2-25.1-25s11.2-25.1,25.1-25.1S100,362.1,100,376"/>
</g>
</svg>
